<?xml version="1.0" standalone="no"?>
<!DOCTYPE svg PUBLIC "-//W3C//DTD SVG 1.1//EN" "http://www.w3.org/Graphics/SVG/1.1/DTD/svg11.dtd" >
<svg xmlns="http://www.w3.org/2000/svg">
<metadata>Generated by IcoMoon</metadata>
<defs>
<font id="icomoon" horiz-adv-x="1024">
<font-face units-per-em="1024" ascent="960" descent="-64" />
<missing-glyph horiz-adv-x="1024" />
<glyph unicode="&#x20;" horiz-adv-x="512" d="" />
<glyph unicode="&#xe902;" glyph-name="icon-award" horiz-adv-x="803" d="M769.512 800.76h-106.181v58.021c20.693 7.173 35.285 26.498 35.285 49.232 0 28.611-23.112 51.824-51.685 51.987h-490.402c-28.588-0.163-51.701-23.376-51.701-51.987 0-22.733 14.592-42.059 34.92-49.121l0.365-0.11v-58.021h-106.181c-18.766-0.116-33.934-15.356-33.934-34.138 0-0.050 0-0.1 0-0.15v0.008-70.766c-0.001-0.226-0.001-0.493-0.001-0.76 0-106.035 85.614-192.073 191.487-192.76h0.711c37.242-50.079 90.977-86.071 153.049-100.022l1.748-0.33c-8.885-11.613-14.237-26.341-14.237-42.318 0-23.054 11.143-43.506 28.338-56.262l0.188-0.134c-6.876-8.732-11.028-19.889-11.028-32.016 0-0.026 0-0.053 0-0.079v0.004-141.548c0-0.061 0-0.134 0-0.206 0-29.664-23.932-53.739-53.541-53.971h-70.127c-18.768-0.125-33.934-15.368-33.934-34.154 0-0.045 0-0.089 0-0.134v0.007-70.766c0-0.038 0-0.082 0-0.127 0-18.782 15.168-34.022 33.923-34.138h350.282c18.766 0.116 33.934 15.356 33.934 34.138 0 0.050 0 0.1 0 0.15v-0.008 70.766c0 0.042 0 0.092 0 0.142 0 18.782-15.168 34.022-33.923 34.138h-70.068c-29.632 0.232-53.563 24.307-53.563 53.971 0 0.073 0 0.145 0 0.218v-0.011 141.564c0 0.014 0 0.031 0 0.048 0 12.136-4.152 23.302-11.113 32.155l0.085-0.112c17.386 12.887 28.532 33.338 28.532 56.393 0 15.979-5.355 30.708-14.367 42.489l0.124-0.168c63.821 14.282 117.555 50.273 154.301 99.655l0.496 0.697h0.646c105.918 0.714 191.505 86.742 191.505 192.76 0 0.256 0 0.512-0.001 0.768v-0.040 70.766c0 0.042 0 0.092 0 0.142 0 18.782-15.168 34.022-33.923 34.138h-0.011zM156.53 926.791h490.386c10.384 0 18.802-8.418 18.802-18.802s-8.418-18.802-18.802-18.802v0h-490.386c-10.397 0-18.826 8.429-18.826 18.826s8.429 18.826 18.826 18.826v0zM32.831 695.713v70.766c0 0.005 0 0.010 0 0.016 0 0.609 0.494 1.103 1.103 1.103 0 0 0 0 0 0h106.181v-107.268c0-0.102 0-0.222 0-0.343 0-45.042 11.246-87.457 31.084-124.59l-0.694 1.423c-78.24 11.342-137.673 77.953-137.673 158.445 0 0.158 0 0.315 0.001 0.473v-0.024zM576.859 42.165c0.602-0.009 1.087-0.499 1.087-1.103 0-0.006 0-0.011 0-0.017v0.001-70.766c0 0 0 0 0 0 0-0.604-0.485-1.094-1.086-1.103h-350.272c-0.602 0.009-1.087 0.499-1.087 1.103 0 0 0 0 0 0v0 70.766c0 0.005 0 0.010 0 0.016 0 0.604 0.485 1.094 1.086 1.103h350.272zM420.328 271.069v-141.548c0-0.033 0-0.073 0-0.112 0-20.493 7.049-39.34 18.855-54.248l-0.139 0.182h-74.642c11.667 14.726 18.716 33.572 18.716 54.065 0 0.039 0 0.079 0 0.118v-0.006 141.548c0 10.275 8.33 18.605 18.605 18.605s18.605-8.33 18.605-18.605v0zM437.847 359.542c-0.196-19.801-16.293-35.777-36.122-35.777-19.95 0-36.124 16.173-36.124 36.124s16.172 36.123 36.122 36.124v0c19.977-0.125 36.124-16.349 36.124-36.343 0-0.045 0-0.089 0-0.134v0.007zM401.723 429.206c-126.525 0.812-228.779 103.568-228.779 230.207 0 0.323 0.001 0.645 0.002 0.968v-0.050 195.694h457.555v-195.694c0.001-0.273 0.002-0.595 0.002-0.918 0-126.639-102.254-229.394-228.702-230.206h-0.077zM770.615 695.713c0-0.134 0.001-0.292 0.001-0.451 0-80.487-59.425-147.094-136.794-158.34l-0.864-0.103c19.133 35.703 30.374 78.107 30.374 123.137 0 0.131 0 0.262 0 0.393v-0.020 107.252h106.181c0.602-0.009 1.087-0.499 1.087-1.103 0-0.006 0-0.011 0-0.017v0.001-70.766z" />
<glyph unicode="&#xe903;" glyph-name="icon-chair" d="M832.61 589.653h-70.851c-12.119 0-21.943-9.824-21.943-21.943s9.824-21.943 21.943-21.943h15.311v-115.541l-46.324-26.161c-10.925 15.492-28.636 25.566-48.715 25.868l-0.047 0.001h-113.323v58.856h69.486c20.054 0.039 38.046 8.838 50.357 22.773l0.063 0.072c12.025 13.38 19.379 31.169 19.379 50.675 0 1.325-0.034 2.642-0.101 3.951l0.007-0.183-13.434 323.218c-0.5 38.507-31.308 69.655-69.632 70.703l-0.098 0.002h-218.039c-38.422-1.049-69.23-32.198-69.729-70.657v-0.048l-13.458-323.218c-0.060-1.125-0.094-2.442-0.094-3.767 0-19.506 7.354-37.295 19.441-50.745l-0.062 0.070c12.374-14.007 30.365-22.806 50.413-22.845h69.517v-58.978h-120.296c-20.635-0.18-38.778-10.691-49.528-26.605l-0.136-0.214-5.022 2.853-40.692 22.991v115.541h15.238c12.119 0 21.943 9.824 21.943 21.943s-9.824 21.943-21.943 21.943h-70.827c-12.119 0-21.943-9.824-21.943-21.943s9.824-21.943 21.943-21.943h14.043v-128.756c-0.001-0.095-0.002-0.206-0.002-0.318 0-8.138 4.372-15.255 10.896-19.13l0.103-0.056 62.805-35.474-2.901-16.603c-0.675-3.591-1.061-7.723-1.061-11.945 0-15.724 5.354-30.197 14.339-41.697l-0.113 0.15c10.984-14.246 28.016-23.365 47.183-23.479h114.609v-42.764c-0.004-0.163-0.007-0.354-0.007-0.546 0-11.593 9.216-21.034 20.722-21.396l0.033-0.001h23.211c-0.21-1.161-0.334-2.502-0.341-3.87v-54.351c-85.314-1.792-166.977-14.137-244.769-35.78l6.933 1.646c-9.092-2.817-15.582-11.151-15.582-21.001 0-0.117 0.001-0.234 0.003-0.35v0.018-47.445c-18.469-9.152-30.943-27.873-30.943-49.508 0-0.235 0.001-0.47 0.004-0.704v0.036c-0.013-0.436-0.020-0.949-0.020-1.464 0-28.891 22.956-52.42 51.623-53.342l0.085-0.002c28.752 0.924 51.708 24.453 51.708 53.344 0 0.515-0.007 1.028-0.022 1.54l0.002-0.075c0.003 0.199 0.004 0.433 0.004 0.668 0 21.635-12.474 40.356-30.623 49.364l-0.321 0.144v30.232c63.102 16.661 135.905 27.037 210.857 28.702l1.062 0.019v-59.343c-18.363-9.195-30.748-27.865-30.748-49.427 0-0.229 0.001-0.458 0.004-0.686v0.035c-0.062-0.95-0.098-2.059-0.098-3.177 0-28.6 23.185-51.785 51.785-51.785s51.785 23.185 51.785 51.785c0 1.118-0.035 2.227-0.105 3.327l0.008-0.15c0.003 0.212 0.005 0.461 0.005 0.711 0 21.726-12.585 40.513-30.863 49.467l-0.325 0.144v59.099c76.022-1.682 148.834-12.058 218.525-30.173l-6.581 1.452v-30.257c-18.47-9.158-30.943-27.884-30.943-49.523 0-0.23 0.001-0.459 0.004-0.688v0.035c-0.062-0.95-0.098-2.059-0.098-3.177 0-28.6 23.185-51.785 51.785-51.785s51.785 23.185 51.785 51.785c0 1.118-0.035 2.227-0.105 3.327l0.008-0.15c0.003 0.199 0.004 0.433 0.004 0.668 0 21.635-12.474 40.356-30.623 49.364l-0.321 0.144v46.909c0.013 0.28 0.020 0.607 0.020 0.937 0 9.856-6.498 18.194-15.444 20.965l-0.155 0.041c-70.865 19.998-152.538 32.343-236.811 34.116l-1.050 0.017v54.345c-0.007 1.374-0.13 2.715-0.362 4.018l0.021-0.141h23.211c11.526 0.362 20.731 9.792 20.731 21.372 0 0.201-0.003 0.401-0.008 0.6l0.001-0.029v42.813h108.52c19.512 0.104 36.801 9.533 47.65 24.053l0.112 0.157c8.505 11.207 13.624 25.389 13.624 40.767 0 4.912-0.522 9.701-1.514 14.316l0.080-0.445-3.316 16.238 62.366 35.23c6.626 3.926 10.998 11.039 10.998 19.173 0 0.117-0.001 0.233-0.003 0.349v-0.018 128.731h14.068c0.007 0 0.016 0 0.024 0 12.132 0 21.967 9.835 21.967 21.967 0 12.124-9.821 21.953-21.942 21.967h-0.001zM252.050-8.972c0.331 5.373 4.77 9.606 10.197 9.606 5.642 0 10.216-4.574 10.216-10.216 0-5.636-4.563-10.205-10.196-10.216h-0.001c-5.683 0.188-10.219 4.84-10.219 10.552 0 0.096 0.001 0.192 0.004 0.288v-0.014zM758.882-8.972c0.331 5.373 4.77 9.606 10.197 9.606 5.642 0 10.216-4.574 10.216-10.216 0-5.636-4.563-10.205-10.196-10.216h-0.001c-5.683 0.188-10.219 4.84-10.219 10.552 0 0.096 0.001 0.192 0.004 0.288v-0.014zM515.877-20.017c-0.189-0.012-0.411-0.019-0.634-0.019-5.992 0-10.85 4.857-10.85 10.85s4.857 10.85 10.85 10.85c5.992 0 10.85-4.857 10.85-10.85 0-0.002 0-0.004 0-0.006v0c0.005-0.117 0.007-0.255 0.007-0.394 0-5.717-4.554-10.37-10.233-10.528h-0.015zM538.551 246.37h-45.739v20.797h45.714v-20.797zM336.725 311.15c-6.23 0.022-11.762 2.991-15.277 7.585l-0.034 0.046c-2.885 3.65-4.627 8.319-4.627 13.394 0 1.393 0.131 2.756 0.382 4.076l-0.021-0.135 5.681 32.451c1.481 9.649 9.596 16.992 19.477 17.261l0.027 0.001h339.554c9.724-0.244 17.736-7.277 19.485-16.526l0.020-0.127 6.607-32.451c0.296-1.35 0.465-2.902 0.465-4.492 0-4.994-1.668-9.598-4.478-13.286l0.039 0.054c-3.564-4.761-9.172-7.824-15.498-7.875h-351.801zM372.712 542.062c-4.88 5.433-7.864 12.654-7.864 20.572 0 0.534 0.014 1.064 0.040 1.591l-0.003-0.074 13.483 323.17c0.143 15.666 12.66 28.362 28.242 28.793l0.040 0.001h218.039c15.597-0.431 28.098-13.086 28.282-28.703v-0.018l13.483-323.17c0.025-0.461 0.039-1 0.039-1.543 0-7.91-2.985-15.123-7.89-20.574l0.025 0.028c-5.018-5.69-12.317-9.266-20.452-9.289h-245.008c-8.128 0.003-15.427 3.554-20.431 9.188l-0.024 0.028zM527.189 488.814v-58.978h-23.040v58.953h23.040z" />
<glyph unicode="&#xe904;" glyph-name="icon-client" d="M804.331 257.031c-0.497 0.149-1.113 0.286-1.743 0.383l-0.081 0.010-125.054 18.937c-20.228 13.214-22.135 45.982-22.163 81.457 39.71 41.953 64.126 98.737 64.126 161.223 0 0.605-0.002 1.209-0.007 1.812l0.001-0.093v5.19c29.58 26.585 48.101 64.97 48.101 107.681 0 0.151 0 0.301-0.001 0.452v-0.023 97.126c0.001 0.155 0.001 0.338 0.001 0.521 0 79.306-64.052 143.652-143.245 144.129h-208.45c-29.911-0.145-54.913-20.988-61.426-48.934l-0.084-0.428c-55.451-7.333-97.799-54.31-97.799-111.178 0-0.105 0-0.209 0-0.314v0.016-80.924c0-0.135-0.001-0.295-0.001-0.455 0-42.707 18.52-81.088 47.968-107.551l0.133-0.118v-5.19c-0.004-0.509-0.006-1.111-0.006-1.714 0-62.488 24.416-119.274 64.227-161.337l-0.102 0.109c0-35.475-1.95-68.243-22.163-81.457l-125.054-18.937c-0.711-0.107-1.327-0.244-1.927-0.419l0.104 0.026c-28.394-8.333-51.846-25.986-67.39-49.353l-0.278-0.445c-14.747-21.588-23.605-48.221-23.762-76.914v-62.742c1.199-26.455 22.938-47.449 49.581-47.449 0.668 0 1.333 0.013 1.995 0.039l-0.095-0.003h664.52c0.571-0.024 1.241-0.037 1.914-0.037 26.638 0 48.374 20.986 49.577 47.327l0.004 0.108v62.716c-0.148 28.73-8.997 55.364-24.044 77.435l0.309-0.481c-15.823 23.815-39.281 41.469-66.827 49.581l-0.855 0.216zM512 295.186c42.743 0.103 82.226 13.976 114.269 37.415l-0.549-0.383c1.403-27.69 7.126-58.424 29.458-76.94-12.064-62.001-72.003-107.787-143.15-107.787s-131.086 45.771-143.15 107.787c22.304 18.516 28.055 49.25 29.458 76.94 31.48-23.046 70.941-36.917 113.636-37.032h0.028zM334.652 531.505c0.041 0.42 0.064 0.909 0.064 1.403s-0.023 0.982-0.069 1.464l0.005-0.062v83.603c0 0.050 0 0.11 0 0.169 0 27.174 21.945 49.223 49.080 49.39h272.554c8.382 0 15.178 6.795 15.178 15.178s-6.795 15.178-15.178 15.178h-272.538c-43.775-0.27-79.157-35.819-79.157-79.632 0-0.114 0-0.228 0.001-0.342v0.018-45.729c-11.314 17.46-18.039 38.807-18.039 61.724 0 0.068 0 0.136 0 0.204v-0.011 80.938c0 0.088-0.001 0.192-0.001 0.296 0 44.921 36.28 81.368 81.137 81.638h0.026c8.307 0.048 15.024 6.793 15.024 15.107 0 0.025 0 0.049 0 0.074v-0.004c0 0.038 0 0.082 0 0.127 0 18.299 14.779 33.147 33.052 33.258h208.43c62.611-0.39 113.216-51.235 113.216-113.9 0-0.144 0-0.287-0.001-0.431v0.022-97.112c0-0.058 0-0.128 0-0.197 0-22.916-6.726-44.261-18.311-62.169l0.272 0.449v61.917c0 8.301-6.729 15.030-15.030 15.030s-15.030-6.729-15.030-15.030v-113.285c0-107.66-79.563-195.247-177.348-195.247s-177.334 87.587-177.334 195.233v10.731zM865.687 67.577c-1.401-9.735-9.686-17.133-19.699-17.133-0.611 0-1.215 0.028-1.812 0.081l0.077-0.006h-664.52c-0.516-0.048-1.115-0.075-1.721-0.075-10.012 0-18.297 7.398-19.686 17.025l-0.013 0.107v62.702c-0.005 0.368-0.008 0.802-0.008 1.237 0 44.291 28.356 81.958 67.904 95.839l0.712 0.218 113.383 17.17c16.833-73.728 87.868-127.649 171.695-127.649s154.876 53.851 171.695 127.649l113.397-17.17c40.26-14.099 68.616-51.766 68.616-96.057 0-0.435-0.003-0.869-0.008-1.303l0.001 0.066v-62.702zM95.19 196.054h-56.572c-0.306-0.042-0.66-0.067-1.020-0.067-3.56 0-6.566 2.372-7.523 5.622l-0.014 0.055v40.637c-0.004 0.243-0.006 0.53-0.006 0.818 0 26.115 16.596 48.353 39.816 56.744l0.42 0.133 81.808 12.386c0.351 0 0.701 0.14 1.052 0.21l0.449 0.098c0.665 0.175 1.212 0.357 1.743 0.569l-0.102-0.036 0.379 0.168q0.659 0.267 1.276 0.603l0.21 0.098 0.379 0.238 0.337 0.196c15.742 10.518 26.107 28.015 26.65 47.963l0.002 0.081c19.174-11.797 42.402-18.786 67.263-18.786 21.351 0 41.498 5.155 59.264 14.287l-0.729-0.341c4.986 2.576 8.336 7.692 8.336 13.591 0 2.458-0.582 4.78-1.615 6.836l0.040-0.088c-2.492 5.004-7.572 8.381-13.44 8.381-2.438 0-4.74-0.583-6.774-1.617l0.085 0.039c-13.121-6.782-28.639-10.759-45.086-10.759-0.034 0-0.068 0-0.101 0h0.005c-60.318 0-109.414 54.272-109.414 120.958v64.736c0 0 0 0 0 0.001 0 14.65 11.821 26.54 26.445 26.651h38.685c8.382 0 15.178 6.795 15.178 15.178s-6.795 15.178-15.178 15.178v0h-38.702c-31.254-0.191-56.517-25.571-56.517-56.852 0-0.055 0-0.109 0-0.164v0.008-8.010c-1.27 4.965-2.001 10.665-2.006 16.535v52.409c0 0.063 0 0.137 0 0.211 0 26.126 21.099 47.323 47.187 47.482h0.015c8.307 0.048 15.024 6.793 15.024 15.107 0 0.025 0 0.049 0 0.074v-0.004c0 0.021 0 0.046 0 0.070 0 8.903 7.193 16.126 16.085 16.173h18.872c8.382 0 15.178 6.795 15.178 15.178s-6.795 15.178-15.178 15.178h-18.867c-20.592-0.070-38.011-13.574-43.956-32.202l-0.090-0.328c-36.824-6.672-64.386-38.486-64.386-76.737 0-0.066 0-0.133 0-0.199v0.010-52.364c0-0.077 0-0.167 0-0.258 0-28.842 12.35-54.799 32.050-72.871l0.073-0.066v-0.126c-0.002-0.313-0.004-0.684-0.004-1.055 0-42.041 16.513-80.225 43.407-108.42l-0.059 0.062c-0.154-19.302-1.627-36.597-11.068-43.695l-79.648-12.064c-0.711-0.107-1.327-0.244-1.927-0.418l0.103 0.026c-36.88-12.168-63.027-46.316-63.027-86.571 0-0.224 0.001-0.448 0.002-0.672v0.034-40.567c0.765-20.066 17.217-36.042 37.4-36.042 0.428 0 0.855 0.007 1.28 0.021l-0.062-0.002h56.572c8.182 0.257 14.716 6.95 14.716 15.171s-6.535 14.914-14.693 15.17l-0.024 0.001zM960.975 329.468c-0.498 0.149-1.114 0.286-1.743 0.383l-0.081 0.010-79.634 12.064c-9.454 7.098-10.913 24.408-11.082 43.695 26.835 28.133 43.348 66.317 43.348 108.358 0 0.371-0.001 0.742-0.004 1.112v-0.057 0.168c19.74 18.14 32.067 44.079 32.067 72.898 0 0.104 0 0.209 0 0.313v-0.016 81.864c0 0.096 0.001 0.21 0.001 0.324 0 43.813-35.382 79.362-79.131 79.632h-48.126c-8.382 0-15.178-6.795-15.178-15.178s6.795-15.178 15.178-15.178h48.1c27.151-0.167 49.096-22.215 49.096-49.39 0-0.064 0-0.129 0-0.193v0.010-81.864c0-0.011 0-0.023 0-0.036 0-5.888-0.731-11.606-2.109-17.067l0.103 0.48v8.010c0 0.063 0 0.137 0 0.211 0 31.281-25.263 56.661-56.499 56.852h-38.692c-8.382 0-15.178-6.795-15.178-15.178s6.795-15.178 15.178-15.178v0h38.674c14.635-0.111 26.456-12.001 26.456-26.651 0 0 0-0.001 0-0.001v0-64.736c0-66.686-49.096-120.958-109.414-120.958-0.071 0-0.154 0-0.238 0-16.403 0-31.881 3.956-45.534 10.965l0.562-0.262c-1.952 0.998-4.258 1.584-6.701 1.584-5.882 0-10.971-3.393-13.418-8.328l-0.039-0.087c-0.993-1.968-1.575-4.291-1.575-6.749 0-5.899 3.35-11.015 8.251-13.551l0.085-0.040c17.035-8.786 37.179-13.937 58.525-13.937 24.858 0 48.084 6.985 67.824 19.099l-0.565-0.323c0.545-20.029 10.91-37.526 26.436-47.908l0.216-0.136 0.337-0.196 0.421-0.21 0.21-0.098c0.407-0.224 0.842-0.435 1.276-0.617l0.379-0.154c0.426-0.175 0.967-0.357 1.522-0.509l0.105-0.024 0.463-0.098c0.337-0.084 0.687-0.154 1.038-0.21l81.808-12.4c23.64-8.524 40.236-30.762 40.236-56.877 0-0.288-0.002-0.575-0.006-0.861v0.043-40.567c-0.949-3.34-3.971-5.745-7.556-5.745-0.353 0-0.7 0.023-1.041 0.068l0.040-0.004h-56.558c-8.182-0.257-14.716-6.95-14.716-15.171s6.535-14.914 14.693-15.17l0.024-0.001h56.572c0.359-0.012 0.781-0.019 1.204-0.019 20.191 0 36.648 15.983 37.411 35.986l0.002 0.069v40.567c0.001 0.174 0.002 0.38 0.002 0.586 0 40.257-26.147 74.408-62.384 86.396l-0.643 0.184z" />
<glyph unicode="&#xe905;" glyph-name="icon-clock2" d="M613.12 31.086c-8.448-2.121-17.042-4.023-25.6-5.595-19.304-3.851-33.648-20.659-33.648-40.818 0-13.912 6.832-26.228 17.324-33.776l0.124-0.085c6.579-4.735 14.799-7.573 23.682-7.573 2.657 0 5.255 0.254 7.77 0.739l-0.256-0.041c10.167 1.902 20.443 4.133 30.501 6.693 18.224 4.618 31.493 20.874 31.493 40.229 0 22.887-18.553 41.44-41.44 41.44-3.532 0-6.961-0.442-10.234-1.273l0.287 0.062zM917.541 586.971c5.626-16.5 20.99-28.156 39.077-28.156 22.751 0 41.194 18.443 41.194 41.194 0 4.664-0.775 9.147-2.204 13.328l0.086-0.29c-3.255 9.911-6.875 19.858-10.715 29.513-6.178 15.355-20.948 25.996-38.204 25.996-5.512 0-10.771-1.086-15.574-3.056l0.274 0.099c-15.314-6.362-25.887-21.199-25.887-38.506 0-5.547 1.086-10.84 3.057-15.678l-0.1 0.278c3.218-8.119 6.254-16.494 8.997-24.722zM746.898 90.295c-7.314-4.827-14.629-9.509-22.309-13.897-12.425-7.354-20.627-20.687-20.627-35.937 0-13.916 6.83-26.238 17.322-33.794l0.123-0.085c6.59-4.726 14.818-7.558 23.707-7.558 7.582 0 14.682 2.060 20.773 5.651l-0.191-0.104c8.96 5.23 17.883 10.752 26.551 16.53 11.212 7.582 18.485 20.25 18.485 34.616 0 8.499-2.545 16.403-6.915 22.992l0.096-0.154c-7.42 11.267-20.013 18.602-34.32 18.602-8.457 0-16.316-2.563-22.842-6.955l0.146 0.093zM1021.184 471.077c-0.149 22.63-18.528 40.917-41.179 40.917-22.743 0-41.179-18.437-41.179-41.179 0-1.053 0.040-2.097 0.117-3.13l-0.008 0.138c0.329-8.741 0.439-17.627 0.219-26.368-0.007-0.286-0.011-0.623-0.011-0.961 0-13.92 6.852-26.24 17.367-33.77l0.125-0.085c6.344-4.552 14.22-7.346 22.739-7.533l0.045-0.001c0.231-0.005 0.503-0.007 0.775-0.007 22.536 0 40.855 18.055 41.282 40.488l0.001 0.040c0.293 10.423 0.219 21.029-0.183 31.451zM910.811 199.314c-6.789 5.184-15.394 8.307-24.728 8.307-13.437 0-25.362-6.47-32.831-16.465l-0.077-0.107c-5.23-7.022-10.715-13.934-16.347-20.626-6.126-7.211-9.851-16.628-9.851-26.914 0-12.609 5.597-23.91 14.443-31.555l0.053-0.045c0.987-0.841 1.975-1.609 2.999-2.341 6.567-4.677 14.753-7.477 23.592-7.477 12.506 0 23.704 5.605 31.217 14.44l0.048 0.058c6.729 7.973 13.275 16.238 19.529 24.613 5.196 6.877 8.322 15.57 8.322 24.993 0 13.456-6.375 25.424-16.27 33.047l-0.098 0.072zM971.301 349.257c-3.678 1.195-7.909 1.884-12.302 1.884-18.403 0-33.981-12.093-39.222-28.765l-0.079-0.291c-2.597-8.338-5.486-16.713-8.594-24.942-1.723-4.396-2.722-9.487-2.722-14.811 0-13.881 6.79-26.177 17.23-33.746l0.121-0.083c6.598-4.726 14.833-7.557 23.729-7.557 17.508 0 32.455 10.965 38.348 26.402l0.094 0.281c3.657 9.765 7.131 19.749 10.24 29.659 1.212 3.723 1.91 8.006 1.91 12.453 0 18.36-11.909 33.938-28.424 39.431l-0.293 0.085zM433.518 25.125c-39.704 7.283-75.1 19.006-108.116 34.891l2.535-1.099c-0.402 0.219-0.731 0.439-1.17 0.658-7.899 3.657-15.762 7.753-23.406 11.922v0c-134.363 75.452-223.659 217.042-223.659 379.488 0 93.403 29.521 179.911 79.743 250.703l-0.906-1.346c29.19 41.467 64.179 76.513 104.241 104.864l1.341 0.9 1.463 1.024c68.095 47.793 152.701 76.377 243.984 76.377 88.841 0 171.358-27.075 239.75-73.425l-1.503 0.961-32.183-46.811c-8.923-13.019-3.438-22.528 12.215-21.102l139.703 12.581c12.278 0.633 21.993 10.742 21.993 23.121 0 2.573-0.42 5.048-1.195 7.36l0.047-0.163-37.486 136.155c-4.206 15.287-14.958 17.079-23.918 4.059l-32.219-46.921c-79.622 54.819-178.143 87.556-284.31 87.556-31.173 0-61.686-2.822-91.299-8.225l3.092 0.468c-13.166-2.304-26.185-5.12-38.985-8.375h-0.256l-1.463-0.439c-115.993-30.595-213.127-98.037-280.637-188.817l-0.963-1.354c-0.475-0.585-1.207-1.28-1.646-2.048-2.341-3.182-4.645-6.546-6.875-9.655-3.657-5.303-7.314-10.752-10.971-16.201-0.402-0.658-0.731-1.317-1.097-1.975-51.202-78.568-81.655-174.725-81.655-277.995 0-8.278 0.196-16.511 0.583-24.693l-0.044 1.157c0-0.366 0-0.695 0-1.061 0.475-10.386 1.28-20.955 2.414-31.305 0-0.695 0.219-1.317 0.329-1.975 1.134-10.459 2.597-20.919 4.389-31.378 18.914-109.352 70.099-204.414 143.247-277.501l0.003-0.003 0.512-0.549h0.183c19.804-19.684 41.218-37.801 64.007-54.121l1.566-1.066c57.689-41.614 126.471-71.766 200.989-85.573l3.116-0.48c1.224-0.128 2.645-0.201 4.083-0.201 22.904 0 41.472 18.568 41.472 41.472 0 19.195-13.041 35.345-30.746 40.072l-0.29 0.066zM484.425 786.103c-18.414-0.062-33.317-15.004-33.317-33.426 0-0.039 0-0.077 0-0.116v0.006-334.226l303.543-158.025c4.381-2.305 9.572-3.658 15.080-3.658 0.060 0 0.12 0 0.18 0h-0.009c12.877 0.035 24.030 7.378 29.536 18.099l0.087 0.187c2.351 4.474 3.731 9.776 3.731 15.4 0 12.873-7.229 24.057-17.849 29.714l-0.181 0.088-267.447 139.301v293.12c0 0.033 0 0.071 0 0.11 0 18.435-14.924 33.385-33.349 33.426h-0.004z" />
<glyph unicode="&#xe906;" glyph-name="icon-consultant" horiz-adv-x="929" d="M925.475 276.819c-7.181 19.747-22.456 35.042-41.705 42.097l-0.484 0.155c-6.881 2.54-14.828 4.009-23.119 4.009-13.157 0-25.45-3.701-35.894-10.119l0.298 0.17-171.874-103.739-23.631-10.193h-124.030c-0.022-0.001-0.049-0.001-0.075-0.001-1.16 0-2.174 0.627-2.721 1.561l-0.008 0.015c-0.331 0.491-0.528 1.096-0.528 1.747 0 0.543 0.137 1.054 0.379 1.5l-0.008-0.017c0.381 0.777 1.036 1.371 1.836 1.663l0.023 0.007 94.113 33.824c29.062 9.44 49.701 36.28 49.701 67.94 0 6.203-0.792 12.22-2.281 17.957l0.109-0.495c-8.181 29.735-34.977 51.215-66.791 51.215-7.836 0-15.368-1.303-22.39-3.705l0.487 0.145-97.107-32.547-254.976-17.124c-17.436-1.205-32.917-8.714-44.359-20.24l-0.004-0.004-138.634-139.516c-13.367-13.055-21.657-31.259-21.657-51.399 0-17.212 6.055-33.010 16.151-45.381l-0.102 0.129c6.207-7.247 32.926-33.083 72.988-71.491 23.347-22.418 45.403-43.591 55.863-54.13 2.978-3 7.103-4.856 11.662-4.856 4.035 0 7.731 1.455 10.591 3.868l-0.025-0.020 76.075 63.898c15.308 12.898 35.242 20.743 57.009 20.764h260.825c0.014 0 0.031 0 0.047 0 9.854 0 19.223 2.075 27.694 5.813l-0.439-0.173 124.109 53.547 6.302 3.151q0.504 0.252 0.977 0.551l174.332 105.204c21.152 12.529 35.113 35.235 35.113 61.201 0 8.243-1.407 16.157-3.993 23.516l0.152-0.497zM877.19 221.145l-173.844-104.921-5.262-2.71-122.581-52.838c-4.204-1.872-9.11-2.962-14.27-2.962-0.018 0-0.036 0-0.053 0h-260.833c-29.831-0.033-57.146-10.781-78.308-28.603l0.184 0.151-64.685-54.319c-11.831 11.548-28.357 27.459-45.686 44.111-29.034 27.869-65.158 62.559-70.766 69.128-4.963 6.463-7.953 14.666-7.953 23.568 0 10.987 4.555 20.91 11.88 27.983l0.011 0.011 138.634 139.516c5.991 6.036 14.094 9.969 23.108 10.596l0.113 0.006 257.103 17.25c1.501 0.097 2.902 0.384 4.225 0.837l-0.114-0.034 99.139 33.225c3.419 1.179 7.359 1.859 11.458 1.859 16.678 0 30.724-11.268 34.941-26.606l0.060-0.254c0.571-2.488 0.898-5.345 0.898-8.278 0-17.263-11.333-31.879-26.965-36.813l-0.273-0.074-0.331-0.126-94.192-33.95c-14.187-5.232-24.12-18.636-24.12-34.36 0-20.105 16.24-36.417 36.318-36.533h127.412c0.001 0 0.002 0 0.003 0 2.345 0 4.575 0.493 6.592 1.38l-0.105-0.041 27.774 11.973c0.783 0.336 1.435 0.673 2.060 1.050l-0.075-0.042 172.851 104.322c5.322 3.289 11.775 5.238 18.682 5.238 4.328 0 8.477-0.765 12.319-2.167l-0.25 0.080c10.427-3.77 18.483-11.878 22.103-22.085l0.079-0.254c1.095-3.39 1.726-7.291 1.726-11.339 0-14.012-7.563-26.258-18.829-32.879l-0.179-0.097zM579.868 468.638v-38.329c0-9.11 7.385-16.494 16.494-16.494s16.494 7.385 16.494 16.494v0 128.677c159.814 23.509 283.405 152.225 298.85 312.552l0.111 1.422c0.049 0.479 0.077 1.034 0.077 1.596 0 4.561-1.834 8.694-4.805 11.701l0.002-0.002c-2.97 2.969-7.073 4.806-11.605 4.806-0.568 0-1.129-0.029-1.682-0.085l0.070 0.006c-124.351-12.485-228.431-88.594-280.139-194.883l-0.91-2.072v196.309c0 0.024 0 0.051 0 0.079 0 20.049 16.2 36.315 36.224 36.422h0.010c8.939 0.284 16.078 7.599 16.078 16.581s-7.138 16.297-16.052 16.58l-0.026 0.001c-38.31-0.125-69.317-31.21-69.317-69.537 0-0.044 0-0.089 0-0.133v0.007-62.401c-34.577 53.429-91.358 89.956-156.967 96.531l-0.886 0.072c-0.482 0.050-1.041 0.079-1.607 0.079-4.534 0-8.638-1.836-11.611-4.805v0c-2.969-3.006-4.803-7.139-4.803-11.7 0-0.562 0.028-1.118 0.082-1.666l-0.006 0.069c9.267-96.298 81.508-173.301 174.643-189.726l1.28-0.187v-112.924c-52.596 108.363-156.651 184.485-279.518 196.882l-1.468 0.12c-0.483 0.051-1.045 0.079-1.612 0.079-4.532 0-8.635-1.836-11.605-4.806v0c-2.969-3.008-4.802-7.143-4.802-11.706 0-0.56 0.028-1.114 0.082-1.66l-0.006 0.069c15.526-161.762 139.111-290.5 297.023-313.791l1.906-0.231zM440.21 888.162c68.376-15.636 121.175-68.704 136.188-136.020l0.224-1.196c-68.376 15.636-121.175 68.704-136.188 136.020l-0.224 1.196zM876.323 855.347c-20.396-123.464-109.725-221.722-226.447-254.828l-2.236-0.542 136.287 137.058c2.986 3.009 4.832 7.153 4.832 11.729s-1.845 8.72-4.833 11.73l0.001-0.001c-2.977 2.997-7.101 4.852-11.658 4.852s-8.681-1.855-11.657-4.851l-0.001-0.001-139.532-140.304c31.368 121.685 130.239 213.824 253.368 234.892l1.876 0.265zM571.628 529.841l-139.516 140.288c-2.976 3.001-7.1 4.859-11.658 4.859s-8.682-1.858-11.657-4.857l-0.001-0.001c-2.986-3.009-4.832-7.153-4.832-11.729s1.845-8.72 4.833-11.73l-0.001 0.001 136.287-137.058c-118.964 33.642-208.3 131.902-228.446 253.524l-0.252 1.846c125-21.335 223.866-113.466 254.761-232.943l0.483-2.199z" />
<glyph unicode="&#xe907;" glyph-name="icon-hand" d="M1011.298 669.642l-212.883 214.8c-12.861 13.027-30.718 21.095-50.459 21.095s-37.598-8.069-50.452-21.088l-0.007-0.007-50.111-50.481c-7.241-7.327-12.915-16.221-16.467-26.125l-0.156-0.499-233.995 42.289c-11.291 2.317-24.267 3.643-37.553 3.643-94.607 0-173.509-67.239-191.525-156.536l-0.211-1.252-10.894-54.032c-1.587-6.986-2.496-15.008-2.496-23.243 0-60.453 49.006-109.459 109.459-109.459 53.262 0 97.639 38.042 107.442 88.437l0.112 0.69 6.536 33.029 104.971-9.26 323.802-326.809c4.686-4.723 7.581-11.229 7.581-18.41s-2.895-13.687-7.583-18.412l0.002 0.002c-4.657-4.698-11.112-7.607-18.247-7.607s-13.59 2.909-18.245 7.605l-0.002 0.002-133.076 134.275c-4.277 4.337-10.219 7.023-16.787 7.023s-12.51-2.686-16.784-7.021l-0.003-0.003c-4.295-4.349-6.948-10.329-6.948-16.929s2.653-12.579 6.951-16.931l-0.002 0.002 133.142-134.253c4.686-4.723 7.581-11.229 7.581-18.41s-2.895-13.687-7.583-18.412l0.002 0.002c-4.657-4.698-11.112-7.607-18.247-7.607s-13.59 2.909-18.245 7.605l-132.969 134.277c-4.28 4.331-10.22 7.014-16.787 7.014s-12.507-2.683-16.785-7.012l-0.002-0.002c-4.295-4.349-6.948-10.329-6.948-16.929s2.653-12.579 6.951-16.931l-0.002 0.002 133.076-134.275c4.686-4.723 7.581-11.229 7.581-18.41s-2.895-13.687-7.583-18.412l0.002 0.002c-4.652-4.709-11.109-7.626-18.247-7.626s-13.595 2.917-18.244 7.623l-0.003 0.003-133.076 134.275c-4.28 4.331-10.22 7.014-16.787 7.014s-12.507-2.683-16.785-7.012l-0.002-0.002c-4.295-4.349-6.948-10.329-6.948-16.929s2.653-12.579 6.951-16.931l-0.002 0.002 133.076-134.275c4.686-4.723 7.581-11.229 7.581-18.41s-2.895-13.687-7.583-18.412l0.002 0.002c-4.654-4.704-11.11-7.616-18.247-7.616s-13.593 2.913-18.245 7.614l-0.002 0.002-533.025 537.84c-4.28 4.331-10.22 7.014-16.787 7.014s-12.507-2.683-16.785-7.012l-0.002-0.002c-4.295-4.349-6.948-10.329-6.948-16.929s2.653-12.579 6.951-16.931l-0.002 0.002 129.852-131.028-37.3-37.648c-11.712-11.854-18.947-28.155-18.947-46.145s7.235-34.291 18.953-46.152l-0.006 0.006 12.201-12.288c10.154-10.305 23.76-17.184 38.942-18.758l0.275-0.023c1.543-15.567 8.368-29.302 18.63-39.612l-0.002 0.002 12.201-12.179c10.16-10.286 23.766-17.149 38.943-18.714l0.274-0.023c1.529-15.583 8.356-29.337 18.63-39.655l-0.002 0.002 12.179-12.288c10.15-10.311 23.758-17.191 38.944-18.758l0.274-0.023c1.54-15.574 8.365-29.317 18.631-39.634l-0.003 0.003 12.179-12.266c11.668-11.799 27.857-19.105 45.753-19.105s34.085 7.307 45.747 19.099l0.006 0.006 37.3 37.627 89.328-90.199c13.206-13.376 31.54-21.661 51.81-21.661s38.605 8.285 51.803 21.654l0.008 0.008c12.582 12.685 20.582 29.93 21.304 49.038l0.004 0.135c19.133 0.77 36.243 8.846 48.73 21.496l0.008 0.008c12.563 12.702 20.552 29.95 21.282 49.058l0.004 0.137c19.143 0.77 36.264 8.837 48.776 21.476l0.006 0.006c12.563 12.702 20.552 29.95 21.282 49.058l0.004 0.137c19.143 0.77 36.264 8.837 48.776 21.476l0.006 0.006c13.253 13.441 21.437 31.909 21.437 52.289s-8.184 38.849-21.446 52.298l0.009-0.009-32.899 33.182 204.125 205.802c12.895 13.089 20.857 31.067 20.857 50.906s-7.962 37.817-20.866 50.915l0.009-0.009zM119.416 322.898c-3.119 3.148-5.047 7.482-5.047 12.266s1.927 9.118 5.048 12.268l-0.001-0.001 34.969 35.208 36.494-36.82-34.99-35.295c-3.104-3.128-7.404-5.064-12.157-5.064s-9.054 1.936-12.156 5.063l-0.001 0.001zM189.549 252.198c-3.119 3.148-5.047 7.482-5.047 12.266s1.927 9.118 5.048 12.268l-0.001-0.001 34.86 35.317 36.494-36.82-34.969-35.295c-3.104-3.128-7.404-5.064-12.157-5.064s-9.054 1.936-12.156 5.063l-0.001 0.001zM259.595 181.52c-3.119 3.148-5.047 7.482-5.047 12.266s1.927 9.118 5.048 12.268l-0.001-0.001 34.969 35.295 36.494-36.799-34.969-35.295c-3.104-3.128-7.404-5.064-12.157-5.064s-9.054 1.936-12.156 5.063l-0.001 0.001zM366.134 98.555c-3.101-3.133-7.403-5.073-12.157-5.073s-9.056 1.94-12.156 5.072l-0.001 0.001-12.179 12.288c-3.119 3.148-5.047 7.482-5.047 12.266s1.927 9.118 5.048 12.268l-0.001-0.001 34.99 35.295 36.494-36.82zM773.665 395.711l-263.451 265.804c-3.802 3.851-8.915 6.4-14.614 6.922l-0.092 0.007-134.71 11.874c-0.697 0-1.394 0-2.179 0-11.479-0.050-21.036-8.222-23.221-19.064l-0.026-0.152-10.894-54.032c-5.951-28.506-30.871-49.612-60.721-49.612-34.222 0-61.965 27.743-61.965 61.965 0 4.373 0.453 8.64 1.314 12.756l-0.071-0.403 10.894 54.032c13.696 68.609 73.438 119.59 145.087 119.59 10.19 0 20.139-1.031 29.749-2.995l-0.952 0.163h0.501l230.77-41.744 28.323-28.65 229.834-231.882zM977.724 601.6l-66.909-67.54-229.768 232.034c-4.323 4.377-6.994 10.395-6.994 17.038s2.67 12.661 6.996 17.040l-0.002-0.002 50.111 50.481c4.304 4.359 10.279 7.058 16.885 7.058s12.581-2.7 16.883-7.056l0.002-0.002 212.883-214.8c4.317-4.376 6.983-10.39 6.983-17.026 0-6.68-2.701-12.729-7.071-17.115l0.001 0.001zM920.271 633.191c0.065 0.001 0.141 0.001 0.218 0.001 13.236 0 23.966-10.73 23.966-23.966s-10.73-23.966-23.966-23.966c-13.236 0-23.965 10.729-23.966 23.965v0c0 0.039 0 0.085 0 0.131 0 13.133 10.622 23.786 23.744 23.835h0.005z" />
<glyph unicode="&#xe908;" glyph-name="icon-horse" d="M828.719 81.082h-46.545l-71.075 100.771 135.447 444.137c0.635 2.020 1.001 4.343 1.001 6.751 0 0.007 0 0.015 0 0.022v-0.001c-0.070 180.433-138.543 327.238-308.736 327.238-81.108-0.286-154.545-32.897-208.146-85.614l0.041 0.040c-4.17-4.145-6.751-9.885-6.751-16.227 0-6.536 2.741-12.432 7.137-16.601l0.010-0.010 82.153-75.59-155.392-162.909c-11.065-11.784-17.862-27.689-17.862-45.181 0-16.387 5.966-31.38 15.843-42.927l-0.075 0.090 50.362-58.345c3.683-4.374 9.163-7.134 15.287-7.134 2.396 0 4.693 0.423 6.822 1.197l-0.139-0.044 171.776 61.882c3.119-2.154 6.815-4.429 10.625-6.521l0.685-0.345-204.8-228.352c-35.559-40.241-57.269-93.446-57.269-151.721 0-15.818 1.599-31.262 4.646-46.18l-0.252 1.479h-58.182c-11.551-0.334-20.788-9.778-20.788-21.379 0-0.175 0.002-0.349 0.006-0.523v0.026-101.12c-0.006-0.183-0.009-0.399-0.009-0.615 0-11.586 9.213-21.020 20.712-21.377l0.033-0.001h633.437c11.532 0.358 20.745 9.792 20.745 21.378 0 0.216-0.003 0.432-0.010 0.646l0.001-0.031v101.12c0.005 0.176 0.008 0.384 0.008 0.591 0 11.586-9.212 21.020-20.711 21.377l-0.033 0.001zM336.477 247.226l219.345 244.643c4.076-0.509 8.819-0.813 13.628-0.838h0.033c72.016 2.313 129.517 61.248 129.517 133.614 0 1.299-0.019 2.594-0.055 3.885l0.004-0.19c0.002 0.297 0.004 0.648 0.004 1 0 37.175-14.426 70.981-37.986 96.125l0.072-0.077c-3.65 3.968-8.866 6.446-14.662 6.446s-11.012-2.478-14.649-6.432l-0.013-0.014c-3.767-4.072-6.077-9.539-6.077-15.546s2.31-11.474 6.091-15.561l-0.014 0.015c15.962-17.034 25.766-40.008 25.766-65.271 0-0.249-0.001-0.497-0.003-0.745v0.038c0.023-0.768 0.037-1.671 0.037-2.578 0-49.166-39.093-89.202-87.891-90.719l-0.139-0.003c-32.87 0.478-61.306 18.998-75.896 46.080l-0.229 0.466c-3.408 6.519-10.122 10.892-17.857 10.892-3.88 0-7.503-1.1-10.574-3.006l0.086 0.050c-6.26-4.113-10.335-11.103-10.335-19.045 0-4.038 1.053-7.829 2.9-11.115l-0.059 0.114c2.747-4.932 5.358-9.037 8.173-12.986l-0.284 0.419-137.821-49.804-41.332 47.756c-3.012 3.522-4.845 8.131-4.845 13.168 0 5.381 2.092 10.273 5.507 13.908l-0.010-0.011 171.311 179.526c3.82 4.078 6.167 9.577 6.167 15.624 0 6.535-2.74 12.43-7.134 16.599l-0.010 0.009-80.617 74.24c43.776 36.093 100.394 58.032 162.132 58.182h0.033c146.269 0 265.449-125.254 267.171-279.901l-137.728-451.491c-0.641-2.020-1.011-4.343-1.011-6.753 0-4.928 1.545-9.495 4.178-13.242l-0.049 0.074 58.927-83.549h-434.083c-3.481 13.381-5.48 28.741-5.48 44.569 0 46.63 17.346 89.209 45.938 121.636l-0.174-0.201zM807.983-20.038h-591.965v57.158h591.965v-57.158z" />
<glyph unicode="&#xe909;" glyph-name="arrow-right" d="M0 320h512l-192-192 192-192 512 512-512 512-192-192 192-192h-512z" />
<glyph unicode="&#xe90a;" glyph-name="icon-plan" d="M972.946 894.586c0 0.065 0 0.143 0 0.22 0 35.878-28.981 64.986-64.81 65.194h-712.212c-35.925-0.283-64.939-29.471-64.939-65.437 0-30.003 20.192-55.291 47.729-63.014l0.461-0.11v-506.051l-123.733-121.344c-5.517-5.735-8.916-13.544-8.916-22.146 0-8.919 3.653-16.986 9.545-22.784l0.004-0.004c5.643-5.559 13.394-8.991 21.947-8.991 8.866 0 16.87 3.689 22.563 9.615l0.010 0.011 96.89 100.523c2.151-0.665 4.625-1.048 7.187-1.048 0.002 0 0.004 0 0.005 0h209.14l-64.293-272.018h-33.012c-13.663-0.615-24.507-11.841-24.507-25.6s10.844-24.985 24.452-25.598l0.055-0.002h90.21c13.663 0.615 24.507 11.841 24.507 25.6s-10.844 24.985-24.452 25.598l-0.055 0.002h-5.022l64.171 271.97h172.251l64.171-271.97h-4.998c-13.663-0.615-24.507-11.841-24.507-25.6s10.844-24.985 24.452-25.598l0.055-0.002h90.21c13.663 0.615 24.507 11.841 24.507 25.6s-10.844 24.985-24.452 25.598l-0.055 0.002h-33.012l-64.171 271.994h209.14c14.032 0.069 25.381 11.46 25.381 25.502 0 0.034 0 0.069 0 0.103v-0.005 546.67c27.951 7.845 48.104 33.101 48.104 63.064 0 0.021 0 0.041 0 0.062v-0.003zM397.848 468.382c4.439 4.629 7.173 10.925 7.173 17.859s-2.733 13.23-7.181 17.868l0.009-0.009c-4.596 4.788-11.049 7.763-18.197 7.763-6.895 0-13.143-2.768-17.695-7.254l0.003 0.003-132.023-129.438v453.998h644.145v-518.754h-628.395zM908.117 880.421h-712.192c-7.843 0-14.202 6.358-14.202 14.202s6.358 14.202 14.202 14.202h712.192c7.85 0 14.214-6.364 14.214-14.214s-6.364-14.214-14.214-14.214v0zM616.18 442.856h-38.79v127.049c0 14.017-11.363 25.381-25.381 25.381s-25.381-11.363-25.381-25.381v0-126.927h-7.875c-13.663-0.615-24.507-11.841-24.507-25.6s10.844-24.985 24.452-25.598l0.055-0.002h256.146c13.663 0.615 24.507 11.841 24.507 25.6s-10.844 24.985-24.452 25.598l-0.055 0.002h-18.408v226.743c0 14.017-11.363 25.381-25.381 25.381s-25.381-11.363-25.381-25.381v0-226.865h-38.766v261.144c0 14.017-11.363 25.381-25.381 25.381s-25.381-11.363-25.381-25.381v0-261.144z" />
<glyph unicode="&#xe90b;" glyph-name="icon-play" d="M713.425 456.154l-277.106 189.535c-3.385 2.365-7.586 3.78-12.118 3.78-11.772 0-21.314-9.543-21.314-21.314 0-0.035 0-0.071 0-0.106v0.005-379.051c-0.001-0.062-0.001-0.136-0.001-0.21 0-11.74 9.517-21.257 21.257-21.257 4.558 0 8.781 1.435 12.242 3.877l-0.067-0.045 277.106 189.516c5.671 3.888 9.344 10.333 9.344 17.636s-3.673 13.748-9.271 17.589l-0.073 0.047zM445.743 289.413v298.231l217.619-149.125zM512 941.037c-277.533 0-502.519-224.985-502.519-502.519s224.985-502.519 502.519-502.519c277.533 0 502.519 224.985 502.519 502.519v0c-0.313 277.407-225.111 502.206-502.488 502.518h-0.030zM512-21.125c-253.854 0-459.643 205.789-459.643 459.643s205.789 459.643 459.643 459.643c253.854 0 459.643-205.789 459.643-459.643v0c-0.248-253.754-205.889-459.395-459.619-459.643h-0.024z" />
<glyph unicode="&#xe90c;" glyph-name="quote-left" horiz-adv-x="951" d="M438.857 402.286v-219.429c0-60.571-49.143-109.714-109.714-109.714h-219.429c-60.571 0-109.714 49.143-109.714 109.714v402.286c0 161.143 131.429 292.571 292.571 292.571h36.571c20 0 36.571-16.571 36.571-36.571v-73.143c0-20-16.571-36.571-36.571-36.571h-36.571c-80.571 0-146.286-65.714-146.286-146.286v-18.286c0-30.286 24.571-54.857 54.857-54.857h128c60.571 0 109.714-49.143 109.714-109.714zM950.857 402.286v-219.429c0-60.571-49.143-109.714-109.714-109.714h-219.429c-60.571 0-109.714 49.143-109.714 109.714v402.286c0 161.143 131.429 292.571 292.571 292.571h36.571c20 0 36.571-16.571 36.571-36.571v-73.143c0-20-16.571-36.571-36.571-36.571h-36.571c-80.571 0-146.286-65.714-146.286-146.286v-18.286c0-30.286 24.571-54.857 54.857-54.857h128c60.571 0 109.714-49.143 109.714-109.714z" />
<glyph unicode="&#xe90d;" glyph-name="icon-rest" d="M897.512 898.17c-5.224 8.48-14.458 14.048-24.994 14.048-5.887 0-11.368-1.739-15.957-4.731l0.113 0.069-89.502-57.71h-49.688l-89.527 57.71c-4.477 2.923-9.958 4.662-15.845 4.662-10.535 0-19.77-5.568-24.921-13.922l-0.072-0.126c-2.883-4.577-4.594-10.145-4.594-16.112 0-10.643 5.443-20.015 13.697-25.485l0.113-0.071 82.895-53.492v-146.286l-32.768-156.038c-0.439-1.929-0.691-4.145-0.691-6.42 0-14.278 9.914-26.241 23.233-29.38l0.205-0.041c1.871-0.434 4.019-0.683 6.225-0.683 0.006 0 0.012 0 0.018 0h-0.001c14.248 0.12 26.097 10.239 28.882 23.676l0.033 0.193 27.331 130.17h21.943l30.939-130.926c2.997-13.321 14.726-23.122 28.744-23.122 2.475 0 4.88 0.306 7.177 0.881l-0.203-0.043c13.206 3.432 22.799 15.248 22.799 29.304 0 2.536-0.312 4.999-0.901 7.353l0.044-0.208-36.766 155.575v145.993l82.895 53.492c8.338 5.544 13.758 14.9 13.758 25.521 0 5.981-1.719 11.561-4.69 16.272l0.074-0.126zM742.156 960c25.088-0.192 45.351-20.574 45.351-45.689 0-0.163-0.001-0.326-0.003-0.489v0.025c0.008-0.313 0.012-0.681 0.012-1.050 0-24.991-20.26-45.251-45.251-45.251s-45.251 20.26-45.251 45.251c0 0.369 0.004 0.738 0.013 1.105l-0.001-0.054c-0.002 0.139-0.002 0.303-0.002 0.467 0 25.038 20.139 45.371 45.102 45.686h0.030zM269.434 205.019h-83.212c-35.61-0.412-64.319-29.375-64.319-65.044 0-0.199 0.001-0.397 0.003-0.595v0.030-137.801c-0.002-0.168-0.002-0.366-0.002-0.565 0-35.669 28.709-64.632 64.281-65.044h83.251c35.6 0.425 64.295 29.384 64.295 65.044 0 0.199-0.001 0.397-0.003 0.595v-0.030 137.801c0.002 0.175 0.003 0.382 0.003 0.589 0 35.656-28.698 64.608-64.256 65.020h-0.039zM274.554 1.634c0-0.015 0-0.032 0-0.049 0-2.838-2.287-5.141-5.118-5.169h-83.215c-2.834 0.027-5.12 2.331-5.12 5.169 0 0.017 0 0.034 0 0.052v-0.003 137.777c0 0.015 0 0.032 0 0.049 0 2.838 2.287 5.141 5.118 5.169h83.215c2.834-0.027 5.12-2.331 5.12-5.169 0-0.017 0-0.034 0-0.052v0.003-137.801zM526.287 312.613h-83.188c-35.61-0.412-64.319-29.375-64.319-65.044 0-0.199 0.001-0.397 0.003-0.595v0.030-245.394c-0.002-0.168-0.002-0.366-0.002-0.565 0-35.669 28.709-64.632 64.281-65.044h83.251c35.61 0.412 64.319 29.375 64.319 65.044 0 0.199-0.001 0.397-0.003 0.595v-0.030 245.394c0.002 0.168 0.002 0.366 0.002 0.565 0 35.678-28.723 64.646-64.306 65.044h-0.038zM531.505 1.634c0-0.015 0-0.032 0-0.049 0-2.838-2.287-5.141-5.118-5.169h-83.288c-2.834 0.027-5.12 2.331-5.12 5.169 0 0.017 0 0.034 0 0.052v-0.003 245.37c0 0.015 0 0.032 0 0.049 0 2.838 2.287 5.141 5.118 5.169h83.215c2.834-0.027 5.12-2.331 5.12-5.169 0-0.017 0-0.034 0-0.052v0.003-245.37zM790.601 427.983h-83.212c-35.61-0.412-64.319-29.375-64.319-65.044 0-0.199 0.001-0.397 0.003-0.595v0.030-360.838c-0.001-0.146-0.002-0.319-0.002-0.492 0-35.669 28.709-64.632 64.28-65.044h83.251c35.6 0.425 64.295 29.384 64.295 65.044 0 0.199-0.001 0.397-0.003 0.595v-0.030 360.838c0.001 0.146 0.002 0.319 0.002 0.492 0 35.66-28.695 64.618-64.254 65.044h-0.040zM795.721 1.634c0-0.015 0-0.032 0-0.049 0-2.838-2.287-5.141-5.118-5.169h-83.215c-2.834 0.027-5.12 2.331-5.12 5.169 0 0.017 0 0.034 0 0.052v-0.003 360.838c0 0.015 0 0.032 0 0.049 0 2.838 2.287 5.141 5.118 5.169h83.215c2.834-0.027 5.12-2.331 5.12-5.169 0-0.017 0-0.034 0-0.052v0.003-360.838z" />
<glyph unicode="&#xe910;" glyph-name="icon-target" d="M1022.74 829.353c-2.559 6.063-8.455 10.24-15.326 10.24-0.001 0-0.002 0-0.003 0h-107.268v107.268c0 0.009 0 0.019 0 0.029 0 9.162-7.427 16.589-16.589 16.589-4.6 0-8.762-1.872-11.767-4.896l-128.111-128.127c-22.207-22.094-35.951-52.677-35.951-86.47 0-0.117 0-0.235 0-0.352v0.018-73.003l-27.034-27.034c-72.111 66.513-168.829 107.297-275.073 107.297-224.363 0-406.244-181.882-406.244-406.244s181.882-406.244 406.244-406.244c224.363 0 406.244 181.882 406.244 406.244 0 106.436-40.932 203.311-107.913 275.744l0.247-0.27 27.034 27.034h73.003c0.094 0 0.206 0 0.318 0 33.793 0 64.376 13.743 86.465 35.946l128.131 128.163c2.999 3.001 4.853 7.146 4.853 11.725 0 2.289-0.464 4.47-1.302 6.454l0.041-0.109zM740.903 743.652c0 0.049 0 0.108 0 0.167 0 24.694 10.059 47.038 26.303 63.158l99.838 99.838v-76.942l-126.031-126.031v39.81zM778.508 345.285c0-0.14 0-0.306 0-0.472 0-206.065-167.049-373.114-373.114-373.114s-373.114 167.049-373.114 373.114c0 206.065 167.049 373.114 373.114 373.114 97.183 0 185.688-37.155 252.085-98.035l-0.276 0.25-51.625-51.657c-52.846 47.454-123.085 76.473-200.101 76.473-165.703 0-300.032-134.329-300.032-300.032s134.329-300.032 300.032-300.032c165.703 0 300.032 134.329 300.032 300.032 0 77.017-29.019 147.256-76.719 200.38l0.246-0.278 51.657 51.657c60.639-65.859 97.816-154.139 97.816-251.102 0-0.105 0-0.21 0-0.315v0.017zM460.028 345.285c0-0.017 0-0.037 0-0.058 0-29.956-24.284-54.24-54.24-54.24s-54.24 24.284-54.24 54.24c0 29.956 24.284 54.24 54.24 54.24 9.049 0 17.58-2.216 25.080-6.134l-0.299 0.142-36.454-36.454c-3.107-3.018-5.036-7.236-5.036-11.904 0-9.162 7.427-16.589 16.589-16.589 4.668 0 8.886 1.928 11.9 5.032l36.458 36.458c3.773-7.173 5.986-15.673 5.986-24.69 0-0.015 0-0.030 0-0.045v0.002zM454.735 417.642c-13.73 9.395-30.697 15.003-48.974 15.003-48.288 0-87.434-39.145-87.434-87.434s39.145-87.434 87.434-87.434c48.288 0 87.434 39.145 87.434 87.434 0 18.277-5.608 35.244-15.197 49.274l0.194-0.301 52.082 52.082c22.368-27.38 35.92-62.724 35.92-101.233 0-88.703-71.908-160.61-160.61-160.61s-160.61 71.908-160.61 160.61c0 88.703 71.908 160.61 160.61 160.61 38.509 0 73.853-13.553 101.521-36.149l-0.289 0.229zM530.353 493.261c-33.467 28.315-77.116 45.529-124.786 45.529-107.017 0-193.772-86.755-193.772-193.772s86.755-193.772 193.772-193.772c107.017 0 193.772 86.755 193.772 193.772 0 47.67-17.213 91.319-45.764 125.071l0.235-0.285 51.72 51.72c41.473-46.81 66.801-108.754 66.801-176.612 0-147.388-119.482-266.87-266.87-266.87s-266.87 119.482-266.87 266.87c0 147.388 119.482 266.87 266.87 266.87 67.858 0 129.801-25.327 176.892-67.044l-0.28 0.243zM867.486 706.568c-16.118-16.203-38.431-26.23-63.086-26.23-0.086 0-0.172 0-0.258 0h-39.781l126.031 126.031h76.942z" />
<glyph unicode="&#xe911;" glyph-name="icon-tel" d="M799.086 325.669c-17.202 20.013-42.314 32.808-70.428 33.497l-0.118 0.002c-28.426-0.8-53.746-13.458-71.3-33.18l-0.087-0.1-65.829-68.059c-5.413 3.035-10.971 5.851-16.055 8.631-7.534 3.877-14.629 7.57-20.663 11.447-66.655 45.283-123.434 98.945-170.617 160.365l-1.269 1.72c-21.41 26.7-40.248 56.983-55.261 89.399l-1.132 2.724c17.115 16.201 32.914 32.914 48.421 49.262 5.851 6.034 11.703 12.325 17.518 18.286 20.244 18.614 32.885 45.225 32.885 74.789s-12.641 56.175-32.813 74.723l-0.073 0.066-56.942 59.026c-6.473 6.693-13.166 13.605-19.419 20.517-12.507 13.422-25.6 27.246-39.241 40.229-17.418 19.074-42.204 31.165-69.822 31.742l-0.103 0.002c-28.017-0.692-53.092-12.738-70.899-31.691l-0.049-0.053-0.475-0.439-70.912-74.13c-25.596-26.19-42.317-61.15-45.243-99.96l-0.033-0.538c-0.247-5.196-0.388-11.287-0.388-17.41 0-51.457 9.945-100.591 28.018-145.585l-0.933 2.629c39.741-105.864 93.747-197.214 160.856-277.199l-1.185 1.451c88.283-109.719 197.26-198.922 321.488-262.587l5.57-2.593c53.164-29.035 115.397-48.994 181.498-55.988l2.164-0.186c4.242-0.256 8.96-0.475 13.166-0.475 0.971-0.022 2.115-0.034 3.263-0.034 46.731 0 88.625 20.711 117.003 53.455l0.164 0.193c0.219 0.439 0.622 0.658 0.841 1.097 11.843 14.106 23.794 26.856 36.398 38.93l0.174 0.165c8.96 8.85 18.286 18.286 27.136 27.904 18.992 19.275 30.911 45.564 31.523 74.635l0.002 0.117c-0.492 29.127-12.708 55.308-32.118 74.103l-0.028 0.027zM873.801 98.085c-0.219 0-0.219-0.219 0 0-8.155-9.070-16.494-17.298-25.6-26.368-13.985-13.536-27.13-27.631-39.529-42.373l-0.699-0.854c-18.267-21.139-45.114-34.436-75.066-34.436-1.201 0-2.398 0.021-3.589 0.064l0.173-0.005c-3.145 0-6.473 0-9.618 0.219-60.568 6.658-115.694 24.607-165.067 51.73l2.288-1.152c-122.196 62.496-224.802 146.532-306.568 248.059l-1.4 1.797c-62.035 73.859-112.89 159.75-148.357 253.214l-2.024 6.077c-14.998 35.639-23.713 77.066-23.713 120.529 0 5.2 0.125 10.371 0.371 15.51l-0.028-0.725c1.761 25.093 12.461 47.396 28.9 64.009l-0.009-0.009 71.278 73.691c7.929 8.777 19.076 14.518 31.566 15.352l0.142 0.008c12.214-0.796 22.962-6.476 30.417-15.085l0.047-0.055 0.549-0.622c12.727-12.325 24.832-25.088 37.559-38.546 6.473-6.912 13.166-13.824 19.822-20.955l57.015-59.173c10.122-7.775 16.581-19.883 16.581-33.499s-6.46-25.724-16.482-33.426l-0.1-0.074c-6.034-6.254-11.886-12.544-17.957-18.578-17.518-18.578-34.231-35.877-52.37-52.736-0.409-0.302-0.759-0.652-1.051-1.047l-0.009-0.013c-8.647-8.255-14.024-19.871-14.024-32.744 0-5.876 1.12-11.49 3.159-16.641l-0.107 0.306 0.731-2.048c18.386-43.513 41.004-81.049 68.124-114.815l-0.723 0.931 0.219-0.146c52.157-68.115 113.397-125.947 182.623-172.888l2.721-1.74c7.011-4.612 15.388-9.473 24.026-13.897l1.574-0.732c7.534-3.913 14.629-7.57 20.663-11.447 0.841-0.439 1.682-1.097 2.523-1.499 5.897-3.413 12.973-5.426 20.519-5.426 12.785 0 24.22 5.78 31.835 14.87l0.053 0.065 71.387 73.911c7.768 9.062 18.851 15.088 31.348 16.189l0.177 0.013c12.204-0.845 22.872-6.782 29.997-15.679l0.064-0.083 0.402-0.439 115.017-119.077c9.831-8.069 16.054-20.222 16.054-33.827 0-13.506-6.132-25.58-15.763-33.59l-0.071-0.057zM551.973 716.434c57.123-10.383 106.528-38.040 143.879-77.277l0.102-0.108c38.289-39.596 64.987-90.621 74.49-147.47l0.225-1.632c2.057-13.688 13.675-24.082 27.744-24.21h0.013c1.724 0.040 3.378 0.198 4.995 0.467l-0.204-0.028c13.554 2.733 23.618 14.545 23.618 28.709 0 1.77-0.157 3.504-0.458 5.187l0.026-0.177c-11.753 70.769-44.046 132.522-90.46 180.539l0.092-0.095c-45.39 47.515-105.16 80.942-172.309 93.288l-1.954 0.298c-1.34 0.224-2.885 0.352-4.459 0.352-14.179 0-25.932-10.384-28.069-23.963l-0.021-0.161c-0.334-1.644-0.524-3.535-0.524-5.469 0-13.946 9.919-25.576 23.088-28.219l0.184-0.031zM1005.458 508.306c-19.311 116.561-72.497 218.273-148.958 297.334l0.149-0.155c-74.786 78.281-173.289 133.327-283.949 153.588l-3.209 0.488c-1.342 0.226-2.888 0.356-4.464 0.356-14.137 0-25.844-10.403-27.882-23.972l-0.019-0.155c-0.276-1.508-0.433-3.244-0.433-5.017 0-14.151 10.046-25.955 23.395-28.67l0.188-0.032c101.7-18.634 189.669-67.807 256.346-137.517l0.166-0.175c68.215-70.513 115.737-161.434 132.542-262.731l0.396-2.887c2.057-13.688 13.675-24.082 27.744-24.21h0.013c1.726 0.042 3.38 0.2 4.997 0.467l-0.206-0.028c13.441 2.476 23.489 14.103 23.489 28.077 0 1.853-0.177 3.664-0.514 5.418l0.029-0.179z" />
<glyph unicode="&#xe912;" glyph-name="icon-trade" d="M1024 525.97c0.002 0.356 0.003 0.777 0.003 1.198 0 144.895-116.922 262.482-261.564 263.558l-0.102 0.001c-87.893-0.172-165.55-43.843-212.609-110.625l-0.551-0.824c-19.725 4.451-42.463 7.132-65.781 7.396l-0.193 0.002c-21.822 114.17-120.517 199.408-239.261 200.181h-0.083c-135.098-1.907-243.882-111.87-243.882-247.242 0-101.656 61.345-188.984 149.035-226.984l1.6-0.617c-3.828-19.241-6.019-41.362-6.019-63.994 0-0.013 0-0.026 0-0.039v0.002c-0.020-1.346-0.031-2.935-0.031-4.527 0-184.666 149.701-334.367 334.367-334.367 156.639 0 288.121 107.709 324.424 253.104l0.487 2.303c125.76 21.882 220.161 130.209 220.161 260.585 0 0.313-0.001 0.626-0.002 0.938v-0.048zM479.357 46.989c-1.056-0.013-2.304-0.021-3.553-0.021-166.199 0-300.931 134.731-300.931 300.931s134.731 300.931 300.931 300.931c166.192 0 300.919-134.719 300.931-300.908v-0.001c0.002-0.418 0.003-0.913 0.003-1.408 0-164.67-132.882-298.305-297.266-299.522l-0.116-0.001zM229.648 848.53c3.953 0.269 8.568 0.422 13.219 0.422 99.068 0 181.891-69.554 202.3-162.493l0.253-1.372c-55.041-5.792-104.816-24.299-147.63-52.511l1.24 0.767c0 0.006 0 0.014 0 0.021 0 2.975-2.4 5.389-5.369 5.412h-20.482l40.772 82.777c1.513 2.959 2.4 6.455 2.4 10.157 0 12.46-10.040 22.574-22.471 22.694h-0.011c-8.768-0.018-16.352-5.065-20.024-12.409l-0.059-0.13-29.947-60.834-29.926 60.792c-3.731 7.474-11.315 12.521-20.081 12.539h-0.002c-12.443-0.12-22.483-10.235-22.483-22.694 0-3.703 0.887-7.198 2.459-10.286l-0.060 0.129 40.772-82.777h-14.106c-6.494-0.035-11.745-5.308-11.745-11.807 0-0.029 0-0.059 0-0.088v0.005-0.439c0-0.025 0-0.054 0-0.084 0-6.499 5.251-11.772 11.742-11.807h72.54q-6.917-5.496-13.521-11.348h-59.016c-6.494-0.035-11.745-5.308-11.745-11.807 0-0.022 0-0.044 0-0.066v0.003c0-0.019 0-0.041 0-0.063 0-6.499 5.251-11.772 11.741-11.807h34.715q-5.141-5.58-10.052-11.368l-3.657-4.368c-26.623-32.339-47.645-70.448-60.883-112.030l-0.662-2.408c-72.872 33.836-122.498 106.393-122.498 190.541 0 109.629 84.23 199.585 191.505 208.682l0.771 0.053zM811.384 391.576c2.236-0.209 4.451-0.313 6.666-0.313 9.138 0.039 17.907 1.565 26.094 4.35l-0.578-0.171 1.693 0.564c7.613 2.742 12.957 9.901 12.957 18.309 0 2.908-0.639 5.666-1.785 8.143l0.050-0.12-2.55 5.705c-3.111 6.914-9.94 11.642-17.872 11.642-2.142 0-4.203-0.345-6.131-0.981l0.138 0.039h-0.146c-3.527-1.351-7.607-2.134-11.87-2.134s-8.343 0.783-12.104 2.212l0.234-0.078c-1.526 0.502-3.114 1.108-4.723 1.735-8.003 28.111-18.379 52.574-31.326 75.387l0.877-1.68h20.208c7.489 0.047 13.542 6.129 13.542 13.625 0 0.029 0 0.059 0 0.088v-0.005c0 0.025 0 0.054 0 0.084 0 7.496-6.053 13.578-13.538 13.625h-37.265c-10.125 14.579-20.462 27.338-31.65 39.291l0.177-0.191v0.146c-0.055 0.81-0.086 1.755-0.086 2.708 0 23.626 19.152 42.778 42.778 42.778 18.607 0 34.44-11.88 40.326-28.469l0.093-0.299c3.158-8.602 11.278-14.629 20.806-14.629 0.032 0 0.065 0 0.097 0h-0.005c12.44 0.048 22.506 10.144 22.506 22.591 0 2.658-0.459 5.208-1.302 7.577l0.049-0.158c-12.185 34.503-44.517 58.782-82.519 58.782-36.844 0-68.357-22.821-81.177-55.099l-0.207-0.59c-27.405 21.663-59.175 39.428-93.552 51.708l-2.328 0.725c41.163 51.653 104.069 84.466 174.64 84.466 3.993 0 7.962-0.105 11.903-0.313l-0.551 0.023c119.054-7.973 212.604-106.497 212.604-226.87 0-107.060-74.001-196.837-173.644-220.969l-1.553-0.318c1.76 13.1 2.764 28.244 2.764 43.623 0 15.32-0.997 30.408-2.929 45.201l0.186-1.743zM428.784 278.141c0 12.569-10.189 22.758-22.758 22.758s-22.758-10.189-22.758-22.758v0c0-0.077 0-0.168 0-0.259 0-45.203 30.857-83.198 72.656-94.072l0.676-0.149v-12.392c0-12.569 10.189-22.758 22.758-22.758s22.758 10.189 22.758 22.758v12.392c42.491 11.152 73.327 49.215 73.327 94.48s-30.836 83.327-72.647 94.328l-0.68 0.152v99.641c16.647-8.696 27.815-25.837 27.815-45.586 0-0.019 0-0.039 0-0.058v0.003c0-12.569 10.189-22.758 22.758-22.758s22.758 10.189 22.758 22.758v0c0 0.091 0 0.198 0 0.306 0 45.195-30.847 83.185-72.635 94.066l-0.676 0.149v12.33c0 12.569-10.189 22.758-22.758 22.758s-22.758-10.189-22.758-22.758v0-12.33c-42.511-11.138-73.367-49.211-73.367-94.49s30.856-83.352 72.688-94.339l0.679-0.152v-99.621c-16.659 8.693-27.836 25.839-27.836 45.597 0 0.001 0 0.002 0 0.003v0zM529.93 278.141c0-0.023 0-0.049 0-0.076 0-19.749-11.168-36.89-27.533-45.451l-0.282-0.135v91.324c16.659-8.698 27.836-25.849 27.836-45.609 0-0.019 0-0.037 0-0.056v0.003zM428.784 426.517c0 0.016 0 0.036 0 0.055 0 19.749 11.168 36.89 27.533 45.451l0.282 0.135v-91.303c-16.647 8.696-27.815 25.837-27.815 45.586 0 0.056 0 0.112 0 0.168v-0.009z" />
<glyph unicode="&#xe913;" glyph-name="icon-clock" d="M613.12 31.086c-8.448-2.121-17.042-4.023-25.6-5.595-19.304-3.851-33.648-20.659-33.648-40.818 0-13.912 6.832-26.228 17.324-33.776l0.124-0.085c6.579-4.735 14.799-7.573 23.682-7.573 2.657 0 5.255 0.254 7.77 0.739l-0.256-0.041c10.167 1.902 20.443 4.133 30.501 6.693 18.224 4.618 31.493 20.874 31.493 40.229 0 22.887-18.553 41.44-41.44 41.44-3.532 0-6.961-0.442-10.234-1.273l0.287 0.062zM917.541 586.971c5.626-16.5 20.99-28.156 39.077-28.156 22.751 0 41.194 18.443 41.194 41.194 0 4.664-0.775 9.147-2.204 13.328l0.086-0.29c-3.255 9.911-6.875 19.858-10.715 29.513-6.178 15.355-20.948 25.996-38.204 25.996-5.512 0-10.771-1.086-15.574-3.056l0.274 0.099c-15.314-6.362-25.887-21.199-25.887-38.506 0-5.547 1.086-10.84 3.057-15.678l-0.1 0.278c3.218-8.119 6.254-16.494 8.997-24.722zM746.898 90.295c-7.314-4.827-14.629-9.509-22.309-13.897-12.425-7.354-20.627-20.687-20.627-35.937 0-13.916 6.83-26.238 17.322-33.794l0.123-0.085c6.59-4.726 14.818-7.558 23.707-7.558 7.582 0 14.682 2.060 20.773 5.651l-0.191-0.104c8.96 5.23 17.883 10.752 26.551 16.53 11.212 7.582 18.485 20.25 18.485 34.616 0 8.499-2.545 16.403-6.915 22.992l0.096-0.154c-7.42 11.267-20.013 18.602-34.32 18.602-8.457 0-16.316-2.563-22.842-6.955l0.146 0.093zM1021.184 471.077c-0.149 22.63-18.528 40.917-41.179 40.917-22.743 0-41.179-18.437-41.179-41.179 0-1.053 0.040-2.097 0.117-3.13l-0.008 0.138c0.329-8.741 0.439-17.627 0.219-26.368-0.007-0.286-0.011-0.623-0.011-0.961 0-13.92 6.852-26.24 17.367-33.77l0.125-0.085c6.344-4.552 14.22-7.346 22.739-7.533l0.045-0.001c0.231-0.005 0.503-0.007 0.775-0.007 22.536 0 40.855 18.055 41.282 40.488l0.001 0.040c0.293 10.423 0.219 21.029-0.183 31.451zM910.811 199.314c-6.789 5.184-15.394 8.307-24.728 8.307-13.437 0-25.362-6.47-32.831-16.465l-0.077-0.107c-5.23-7.022-10.715-13.934-16.347-20.626-6.126-7.211-9.851-16.628-9.851-26.914 0-12.609 5.597-23.91 14.443-31.555l0.053-0.045c0.987-0.841 1.975-1.609 2.999-2.341 6.567-4.677 14.753-7.477 23.592-7.477 12.506 0 23.704 5.605 31.217 14.44l0.048 0.058c6.729 7.973 13.275 16.238 19.529 24.613 5.196 6.877 8.322 15.57 8.322 24.993 0 13.456-6.375 25.424-16.27 33.047l-0.098 0.072zM971.301 349.257c-3.678 1.195-7.909 1.884-12.302 1.884-18.403 0-33.981-12.093-39.222-28.765l-0.079-0.291c-2.597-8.338-5.486-16.713-8.594-24.942-1.723-4.396-2.722-9.487-2.722-14.811 0-13.881 6.79-26.177 17.23-33.746l0.121-0.083c6.598-4.726 14.833-7.557 23.729-7.557 17.508 0 32.455 10.965 38.348 26.402l0.094 0.281c3.657 9.765 7.131 19.749 10.24 29.659 1.212 3.723 1.91 8.006 1.91 12.453 0 18.36-11.909 33.938-28.424 39.431l-0.293 0.085zM433.518 25.125c-39.704 7.283-75.1 19.006-108.116 34.891l2.535-1.099c-0.402 0.219-0.731 0.439-1.17 0.658-7.899 3.657-15.762 7.753-23.406 11.922v0c-134.363 75.452-223.659 217.042-223.659 379.488 0 93.403 29.521 179.911 79.743 250.703l-0.906-1.346c29.19 41.467 64.179 76.513 104.241 104.864l1.341 0.9 1.463 1.024c68.095 47.793 152.701 76.377 243.984 76.377 88.841 0 171.358-27.075 239.75-73.425l-1.503 0.961-32.183-46.811c-8.923-13.019-3.438-22.528 12.215-21.102l139.703 12.581c12.278 0.633 21.993 10.742 21.993 23.121 0 2.573-0.42 5.048-1.195 7.36l0.047-0.163-37.486 136.155c-4.206 15.287-14.958 17.079-23.918 4.059l-32.219-46.921c-79.622 54.819-178.143 87.556-284.31 87.556-31.173 0-61.686-2.822-91.299-8.225l3.092 0.468c-13.166-2.304-26.185-5.12-38.985-8.375h-0.256l-1.463-0.439c-115.993-30.595-213.127-98.037-280.637-188.817l-0.963-1.354c-0.475-0.585-1.207-1.28-1.646-2.048-2.341-3.182-4.645-6.546-6.875-9.655-3.657-5.303-7.314-10.752-10.971-16.201-0.402-0.658-0.731-1.317-1.097-1.975-51.202-78.568-81.655-174.725-81.655-277.995 0-8.278 0.196-16.511 0.583-24.693l-0.044 1.157c0-0.366 0-0.695 0-1.061 0.475-10.386 1.28-20.955 2.414-31.305 0-0.695 0.219-1.317 0.329-1.975 1.134-10.459 2.597-20.919 4.389-31.378 18.914-109.352 70.099-204.414 143.247-277.501l0.003-0.003 0.512-0.549h0.183c19.804-19.684 41.218-37.801 64.007-54.121l1.566-1.066c57.689-41.614 126.471-71.766 200.989-85.573l3.116-0.48c1.224-0.128 2.645-0.201 4.083-0.201 22.904 0 41.472 18.568 41.472 41.472 0 19.195-13.041 35.345-30.746 40.072l-0.29 0.066zM484.425 786.103c-18.414-0.062-33.317-15.004-33.317-33.426 0-0.039 0-0.077 0-0.116v0.006-334.226l303.543-158.025c4.381-2.305 9.572-3.658 15.080-3.658 0.060 0 0.12 0 0.18 0h-0.009c12.877 0.035 24.030 7.378 29.536 18.099l0.087 0.187c2.351 4.474 3.731 9.776 3.731 15.4 0 12.873-7.229 24.057-17.849 29.714l-0.181 0.088-267.447 139.301v293.12c0 0.033 0 0.071 0 0.11 0 18.435-14.924 33.385-33.349 33.426h-0.004z" />
<glyph unicode="&#xe914;" glyph-name="envelope" d="M1024 545.143v-453.714c0-50.286-41.143-91.429-91.429-91.429h-841.143c-50.286 0-91.429 41.143-91.429 91.429v453.714c17.143-18.857 36.571-35.429 57.714-49.714 94.857-64.571 190.857-129.143 284-197.143 48-35.429 107.429-78.857 169.714-78.857h1.143c62.286 0 121.714 43.429 169.714 78.857 93.143 67.429 189.143 132.571 284.571 197.143 20.571 14.286 40 30.857 57.143 49.714zM1024 713.143c0-64-47.429-121.714-97.714-156.571-89.143-61.714-178.857-123.429-267.429-185.714-37.143-25.714-100-78.286-146.286-78.286h-1.143c-46.286 0-109.143 52.571-146.286 78.286-88.571 62.286-178.286 124-266.857 185.714-40.571 27.429-98.286 92-98.286 144 0 56 30.286 104 91.429 104h841.143c49.714 0 91.429-41.143 91.429-91.429z" />
<glyph unicode="&#xe915;" glyph-name="chat_bubble_outline" d="M854 256.667v512h-684v-598l86 86h598zM854 852.667c46 0 84-38 84-84v-512c0-46-38-86-84-86h-598l-170-170v768c0 46 38 84 84 84h684z" />
<glyph unicode="&#xe916;" glyph-name="heart" d="M934.176 791.52c-116.128 115.072-301.824 117.472-422.112 9.216-120.32 108.256-305.952 105.856-422.144-9.216-119.712-118.528-119.712-310.688 0-429.28 34.208-33.888 353.696-350.112 353.696-350.112 37.856-37.504 99.072-37.504 136.896 0 0 0 349.824 346.304 353.696 350.112 119.744 118.592 119.744 310.752-0.032 429.28zM888.576 407.424l-353.696-350.112c-12.576-12.512-33.088-12.512-45.6 0l-353.696 350.112c-94.4 93.44-94.4 245.472 0 338.912 91.008 90.080 237.312 93.248 333.088 7.104l43.392-39.040 43.36 39.040c95.808 86.144 242.112 83.008 333.12-7.104 94.4-93.408 94.4-245.44 0.032-338.912zM296.096 719.968c8.864 0 16-7.168 16-16s-7.168-16-16-16h-0.032c-57.408 0-103.968-46.56-103.968-103.968v-0.032c0-8.832-7.168-16-16-16s-16 7.168-16 16v0c0 75.072 60.832 135.904 135.872 135.968 0.064 0 0.064 0.032 0.128 0.032z" />
<glyph unicode="&#xe917;" glyph-name="google+" d="M101.837 686.643c0-76.493 25.549-131.686 75.878-164.096 41.267-26.624 89.088-30.618 113.971-30.618 6.042 0 10.906 0.307 14.285 0.512 0 0-7.885-51.405 30.208-102.195h-1.741c-65.997 0-281.242-13.773-281.242-190.822 0-180.019 197.683-189.184 237.363-189.184 3.123 0 4.966 0.102 4.966 0.102 0.41 0 3.226-0.102 8.090-0.102 25.446 0 91.238 3.174 152.32 32.922 79.258 38.4 119.45 105.421 119.45 198.912 0 90.317-61.235 144.077-105.933 183.398-27.29 24.013-50.893 44.698-50.893 64.819 0 20.48 17.254 35.891 39.014 55.398 35.277 31.488 68.557 76.39 68.557 161.28 0 74.598-9.677 124.723-69.325 156.518 6.195 3.174 28.211 5.478 39.066 7.014 32.307 4.403 79.565 9.421 79.565 35.789v5.069h-235.469c-2.355-0.102-238.131-8.806-238.131-224.717zM481.946 225.178c4.506-71.987-57.088-125.082-149.606-131.789-93.952-6.912-171.264 35.379-175.77 107.315-2.202 34.611 13.005 68.403 42.752 95.386 30.157 27.29 71.578 44.186 116.634 47.514 5.325 0.307 10.598 0.614 15.872 0.614 86.989-0.051 145.869-51.149 150.118-119.040zM420.454 735.949c23.091-81.306-11.776-166.195-67.379-181.914-6.4-1.792-12.954-2.662-19.661-2.662-50.893 0-101.325 51.507-120.064 122.522-10.445 39.731-9.574 74.65 2.406 108.134 11.725 33.024 32.922 55.194 59.546 62.72 6.4 1.792 13.005 2.714 19.712 2.714 61.44 0 100.966-25.498 125.44-111.514zM819.2 563.2v153.6h-102.4v-153.6h-153.6v-102.4h153.6v-153.6h102.4v153.6h153.6v102.4h-153.6z" />
<glyph unicode="&#xe918;" glyph-name="keyboard_arrow_right" d="M366 240.667l196 196-196 196 60 60 256-256-256-256z" />
<glyph unicode="&#xe942;" glyph-name="phone" d="M704 320c-64-64-64-128-128-128s-128 64-192 128-128 128-128 192 64 64 128 128-128 256-192 256-192-192-192-192c0-128 131.5-387.5 256-512s384-256 512-256c0 0 192 128 192 192s-192 256-256 192z" />
<glyph unicode="&#xe947;" glyph-name="location" d="M512 960c-176.732 0-320-143.268-320-320 0-320 320-704 320-704s320 384 320 704c0 176.732-143.27 320-320 320zM512 448c-106.040 0-192 85.96-192 192s85.96 192 192 192 192-85.96 192-192-85.96-192-192-192z" />
<glyph unicode="&#xe986;" glyph-name="search" d="M992.262 88.604l-242.552 206.294c-25.074 22.566-51.89 32.926-73.552 31.926 57.256 67.068 91.842 154.078 91.842 249.176 0 212.078-171.922 384-384 384-212.076 0-384-171.922-384-384s171.922-384 384-384c95.098 0 182.108 34.586 249.176 91.844-1-21.662 9.36-48.478 31.926-73.552l206.294-242.552c35.322-39.246 93.022-42.554 128.22-7.356s31.892 92.898-7.354 128.22zM384 320c-141.384 0-256 114.616-256 256s114.616 256 256 256 256-114.616 256-256-114.614-256-256-256z" />
<glyph unicode="&#xe9cb;" glyph-name="link" d="M440.236 324.234c-13.31 0-26.616 5.076-36.77 15.23-95.134 95.136-95.134 249.934 0 345.070l192 192c46.088 46.086 107.36 71.466 172.534 71.466s126.448-25.38 172.536-71.464c95.132-95.136 95.132-249.934 0-345.070l-87.766-87.766c-20.308-20.308-53.23-20.308-73.54 0-20.306 20.306-20.306 53.232 0 73.54l87.766 87.766c54.584 54.586 54.584 143.404 0 197.99-26.442 26.442-61.6 41.004-98.996 41.004s-72.552-14.562-98.996-41.006l-192-191.998c-54.586-54.586-54.586-143.406 0-197.992 20.308-20.306 20.306-53.232 0-73.54-10.15-10.152-23.462-15.23-36.768-15.23zM256-52c-65.176 0-126.45 25.38-172.534 71.464-95.134 95.136-95.134 249.934 0 345.070l87.764 87.764c20.308 20.306 53.234 20.306 73.54 0 20.308-20.306 20.308-53.232 0-73.54l-87.764-87.764c-54.586-54.586-54.586-143.406 0-197.992 26.44-26.44 61.598-41.002 98.994-41.002s72.552 14.562 98.998 41.006l192 191.998c54.584 54.586 54.584 143.406 0 197.992-20.308 20.308-20.306 53.232 0 73.54 20.306 20.306 53.232 20.306 73.54-0.002 95.132-95.134 95.132-249.932 0.002-345.068l-192.002-192c-46.090-46.088-107.364-71.466-172.538-71.466z" />
<glyph unicode="&#xea82;" glyph-name="share2" d="M864 256c-45.16 0-85.92-18.738-115.012-48.83l-431.004 215.502c1.314 8.252 2.016 16.706 2.016 25.328s-0.702 17.076-2.016 25.326l431.004 215.502c29.092-30.090 69.852-48.828 115.012-48.828 88.366 0 160 71.634 160 160s-71.634 160-160 160-160-71.634-160-160c0-8.622 0.704-17.076 2.016-25.326l-431.004-215.504c-29.092 30.090-69.852 48.83-115.012 48.83-88.366 0-160-71.636-160-160 0-88.368 71.634-160 160-160 45.16 0 85.92 18.738 115.012 48.828l431.004-215.502c-1.312-8.25-2.016-16.704-2.016-25.326 0-88.368 71.634-160 160-160s160 71.632 160 160c0 88.364-71.634 160-160 160z" />
<glyph unicode="&#xea8b;" glyph-name="google-plus" d="M325.8 502.6v-111.8h184.8c-7.4-48-55.8-140.6-184.8-140.6-111.2 0-202 92.2-202 205.8s90.8 205.8 202 205.8c63.4 0 105.6-27 129.8-50.2l88.4 85.2c-56.8 53-130.4 85.2-218.2 85.2-180.2-0.2-325.8-145.8-325.8-326s145.6-325.8 325.8-325.8c188 0 312.8 132.2 312.8 318.4 0 21.4-2.4 37.8-5.2 54h-307.6zM1024 512h-96v96h-96v-96h-96v-96h96v-96h96v96h96z" />
<glyph unicode="&#xea90;" glyph-name="facebook" d="M608 768h160v192h-160c-123.514 0-224-100.486-224-224v-96h-128v-192h128v-512h192v512h160l32 192h-192v96c0 17.346 14.654 32 32 32z" />
<glyph unicode="&#xea96;" glyph-name="twitter" d="M1024 733.6c-37.6-16.8-78.2-28-120.6-33 43.4 26 76.6 67.2 92.4 116.2-40.6-24-85.6-41.6-133.4-51-38.4 40.8-93 66.2-153.4 66.2-116 0-210-94-210-210 0-16.4 1.8-32.4 5.4-47.8-174.6 8.8-329.4 92.4-433 219.6-18-31-28.4-67.2-28.4-105.6 0-72.8 37-137.2 93.4-174.8-34.4 1-66.8 10.6-95.2 26.2 0-0.8 0-1.8 0-2.6 0-101.8 72.4-186.8 168.6-206-17.6-4.8-36.2-7.4-55.4-7.4-13.6 0-26.6 1.4-39.6 3.8 26.8-83.4 104.4-144.2 196.2-146-72-56.4-162.4-90-261-90-17 0-33.6 1-50.2 3 93.2-59.8 203.6-94.4 322.2-94.4 386.4 0 597.8 320.2 597.8 597.8 0 9.2-0.2 18.2-0.6 27.2 41 29.4 76.6 66.4 104.8 108.6z" />
<glyph unicode="&#xeab9;" glyph-name="tumblr" d="M576.032 512l-0.002-234.184c0-59.418-0.77-93.656 5.53-110.5 6.25-16.754 21.918-34.146 38.99-44.202 22.684-13.588 48.542-20.376 77.708-20.376 51.854 0 82.478 6.848 133.742 40.54v-153.944c-43.7-20.552-81.866-32.594-117.324-40.922-35.5-8.242-73.86-12.406-115.064-12.406-46.828 0-74.456 5.886-110.41 17.656-35.958 11.868-66.66 28.806-92.020 50.54-25.45 21.922-43.022 45.208-52.848 69.832-9.826 24.636-14.716 60.414-14.716 107.244v359.1h-137.426v145.006c40.208 13.042 85.164 31.788 113.78 56.152 28.754 24.45 51.766 53.706 69.106 87.944 17.392 34.146 29.348 77.712 35.872 130.516h165.084l-0.002-255.996h255.968v-192h-255.968z" />
<glyph unicode="&#xeaca;" glyph-name="linkedin2" d="M384 576h177.106v-90.782h2.532c24.64 44.194 84.958 90.782 174.842 90.782 186.946 0 221.52-116.376 221.52-267.734v-308.266h-184.61v273.278c0 65.184-1.334 149.026-96.028 149.026-96.148 0-110.82-70.986-110.82-144.292v-278.012h-184.542v576zM64 576h192v-576h-192v576zM256 736c0-53.019-42.981-96-96-96s-96 42.981-96 96c0 53.019 42.981 96 96 96s96-42.981 96-96z" />
</font>
</defs>
</svg>
