<svg xmlns="http://www.w3.org/2000/svg" width="32" height="42" viewBox="0 0 32 42">
  <defs>
    <style>
      .cls-1 {
        fill: #c3c3c3;
        fill-rule: evenodd;
      }
    </style>
  </defs>
  <path id="Forma_1" data-name="Forma 1" class="cls-1" d="M31.812,2.536a1.2,1.2,0,0,0-1.675-.385L26.466,4.518H24.428L20.756,2.151a1.2,1.2,0,0,0-1.675.385,1.253,1.253,0,0,0,.378,1.709l3.4,2.194v6l-1.344,6.4a1.238,1.238,0,0,0,.933,1.47,1.178,1.178,0,0,0,.256.028,1.22,1.22,0,0,0,1.186-.979l1.121-5.339h0.9l1.269,5.37a1.207,1.207,0,0,0,1.465.914,1.24,1.24,0,0,0,.9-1.495l-1.508-6.381V6.439l3.4-2.194A1.253,1.253,0,0,0,31.812,2.536ZM25.44,0A1.874,1.874,0,0,1,27.3,1.893a1.856,1.856,0,1,1-3.711,0A1.874,1.874,0,0,1,25.44,0ZM6.051,30.966H2.638A2.668,2.668,0,0,0,0,33.657v5.652A2.668,2.668,0,0,0,2.638,42H6.051a2.668,2.668,0,0,0,2.637-2.691V33.657A2.667,2.667,0,0,0,6.051,30.966Zm0.21,8.342a0.212,0.212,0,0,1-.21.214H2.638a0.212,0.212,0,0,1-.21-0.214V33.657a0.212,0.212,0,0,1,.21-0.214H6.051a0.212,0.212,0,0,1,.21.214v5.652h0ZM16.586,26.553H13.174a2.668,2.668,0,0,0-2.638,2.691V39.309A2.668,2.668,0,0,0,13.174,42h3.413a2.668,2.668,0,0,0,2.638-2.691V29.244A2.668,2.668,0,0,0,16.586,26.553ZM16.8,39.308a0.212,0.212,0,0,1-.21.214H13.174a0.212,0.212,0,0,1-.21-0.214V29.244a0.212,0.212,0,0,1,.21-0.214h3.413a0.212,0.212,0,0,1,.21.214V39.308ZM27.427,21.821H24.014a2.668,2.668,0,0,0-2.638,2.691v14.8A2.668,2.668,0,0,0,24.014,42h3.413a2.668,2.668,0,0,0,2.637-2.691v-14.8A2.668,2.668,0,0,0,27.427,21.821Zm0.21,17.487a0.212,0.212,0,0,1-.21.214H24.014a0.212,0.212,0,0,1-.21-0.214v-14.8a0.212,0.212,0,0,1,.21-0.214h3.413a0.212,0.212,0,0,1,.21.214v14.8Z"/>
</svg>
