<svg xmlns="http://www.w3.org/2000/svg" width="73" height="61" viewBox="0 0 73 61">
  <defs>
    <style>
      .cls-1 {
        fill: #ffa000;
        fill-rule: evenodd;
      }
    </style>
  </defs>
  <path id="Forma_1" data-name="Forma 1" class="cls-1" d="M57.34,44.114a1.034,1.034,0,0,0-.13-0.028l-8.915-1.35c-1.442-.942-1.578-3.278-1.58-5.807a16.734,16.734,0,0,0,4.571-11.616v-0.37a10.307,10.307,0,0,0,3.429-7.707V10.312A10.275,10.275,0,0,0,44.5,0H29.643a4.518,4.518,0,0,0-4.385,3.519,7.991,7.991,0,0,0-6.972,7.947v5.769a10.305,10.305,0,0,0,3.429,7.708v0.37a16.735,16.735,0,0,0,4.571,11.616c0,2.529-.139,4.865-1.58,5.807l-8.915,1.35a1.046,1.046,0,0,0-.13.028,8.624,8.624,0,0,0-4.824,3.55A9.9,9.9,0,0,0,9.143,53.15v4.47A3.538,3.538,0,0,0,12.813,61H60.186a3.538,3.538,0,0,0,3.671-3.379V53.15a9.9,9.9,0,0,0-1.692-5.486A8.622,8.622,0,0,0,57.34,44.114ZM36.5,41.394a13.867,13.867,0,0,0,8.107-2.64c0.1,1.974.508,4.165,2.1,5.485-0.86,4.42-5.133,7.684-10.205,7.684s-9.345-3.263-10.205-7.684c1.59-1.32,2-3.511,2.1-5.485A13.867,13.867,0,0,0,36.5,41.394ZM23.857,24.547a1.1,1.1,0,0,0,0-.2v-5.96a3.521,3.521,0,0,1,3.5-3.533H46.786a1.082,1.082,0,0,0,0-2.164H27.357a5.677,5.677,0,0,0-5.643,5.7v3.26a8.171,8.171,0,0,1-1.286-4.414V11.466a5.82,5.82,0,0,1,5.786-5.841,1.077,1.077,0,0,0,1.071-1.082,2.371,2.371,0,0,1,2.357-2.38H44.5a8.12,8.12,0,0,1,8.071,8.149v6.923a8.17,8.17,0,0,1-1.286,4.414V17.235a1.071,1.071,0,1,0-2.143,0v8.076c0,7.675-5.672,13.919-12.643,13.919S23.857,32.986,23.857,25.312V24.547ZM61.714,57.62a1.418,1.418,0,0,1-1.528,1.216H12.813a1.418,1.418,0,0,1-1.527-1.216V53.15a7.239,7.239,0,0,1,4.891-6.936L24.26,44.99c1.2,5.256,6.264,9.1,12.24,9.1s11.041-3.839,12.24-9.1l8.084,1.224a7.239,7.239,0,0,1,4.891,6.936v4.47ZM6.786,48.461H2.753a0.559,0.559,0,0,1-.61-0.4V45.164a4.3,4.3,0,0,1,2.868-4.113l5.832-.883c0.025,0,.05-0.01.075-0.015l0.032-.007a1.079,1.079,0,0,0,.117-0.038l0.027-.012q0.047-.019.091-0.043l0.015-.007,0.027-.017,0.024-.014a4.24,4.24,0,0,0,1.9-3.425,9.254,9.254,0,0,0,8.968.345,1.087,1.087,0,0,0,.482-1.45A1.067,1.067,0,0,0,21.166,35a7.118,7.118,0,0,1-3.221.767c-4.3,0-7.8-3.869-7.8-8.623V22.529a1.9,1.9,0,0,1,1.886-1.9h2.757a1.082,1.082,0,0,0,0-2.164H12.029A4.053,4.053,0,0,0,8,22.529V23.1a4.966,4.966,0,0,1-.143-1.179V18.185a3.385,3.385,0,0,1,3.365-3.4,1.077,1.077,0,0,0,1.071-1.082,1.153,1.153,0,0,1,1.147-1.158h1.345a1.082,1.082,0,0,0,0-2.164H13.44A3.3,3.3,0,0,0,10.3,12.7a5.555,5.555,0,0,0-4.59,5.484v3.733A7.048,7.048,0,0,0,8,27.135v0.009a11.2,11.2,0,0,0,3.09,7.8c-0.011,1.376-.116,2.609-0.789,3.115l-5.678.86a1.043,1.043,0,0,0-.13.028A6.485,6.485,0,0,0,0,45.164v2.892a2.668,2.668,0,0,0,2.753,2.568H6.786A1.082,1.082,0,0,0,6.786,48.461ZM68.507,38.95a1.033,1.033,0,0,0-.13-0.028L62.7,38.062c-0.674-.506-0.778-1.74-0.79-3.115a11.2,11.2,0,0,0,3.09-7.8V27.135a7.05,7.05,0,0,0,2.286-5.218V16.081a5.677,5.677,0,0,0-5.643-5.7H58.214a1.082,1.082,0,0,0,0,2.164h3.429a3.521,3.521,0,0,1,3.5,3.534v5.836A4.96,4.96,0,0,1,65,23.1V22.529a4.053,4.053,0,0,0-4.029-4.068H58.214a1.082,1.082,0,0,0,0,2.164h2.757a1.9,1.9,0,0,1,1.886,1.9v4.615c0,4.754-3.5,8.623-7.8,8.623A7.117,7.117,0,0,1,51.834,35a1.067,1.067,0,0,0-1.437.487,1.087,1.087,0,0,0,.482,1.45,9.257,9.257,0,0,0,8.967-.345,4.24,4.24,0,0,0,1.9,3.425l0.024,0.014L61.8,40.046l0.015,0.007c0.029,0.016.06,0.031,0.091,0.044l0.027,0.011a1.071,1.071,0,0,0,.116.038l0.033,0.007c0.024,0.006.049,0.011,0.074,0.015l5.832,0.884a4.3,4.3,0,0,1,2.868,4.113v2.892a0.559,0.559,0,0,1-.61.405H66.214a1.082,1.082,0,0,0,0,2.163h4.033A2.669,2.669,0,0,0,73,48.056V45.164A6.486,6.486,0,0,0,68.507,38.95Z"/>
</svg>
