<svg xmlns="http://www.w3.org/2000/svg" width="28" height="28" viewBox="0 0 28 28">
  <defs>
    <style>
      .cls-1 {
        fill: #ffa000;
        fill-rule: evenodd;
      }
    </style>
  </defs>
  <path id="Forma_1" data-name="Forma 1" class="cls-1" d="M16.765,25.4c-0.231.058-.466,0.11-0.7,0.153a1.137,1.137,0,0,0-.443,2.042,1.116,1.116,0,0,0,.853.188c0.278-.052.559-0.113,0.834-0.183A1.133,1.133,0,0,0,16.765,25.4Zm8.324-15.2a1.126,1.126,0,1,0,2.137-.713c-0.089-.271-0.188-0.543-0.293-0.807A1.123,1.123,0,0,0,25.47,8.05a1.137,1.137,0,0,0-.627,1.474C24.931,9.746,25.014,9.975,25.089,10.2ZM20.423,23.781c-0.2.132-.4,0.26-0.61,0.38a1.138,1.138,0,0,0-.087,1.909,1.12,1.12,0,0,0,1.211.055c0.245-.143.489-0.294,0.726-0.452a1.139,1.139,0,0,0,.319-1.571A1.12,1.12,0,0,0,20.423,23.781Zm7.5-10.412a1.126,1.126,0,1,0-2.249.089c0.009,0.239.012,0.482,0.006,0.721a1.135,1.135,0,0,0,.478.952,1.117,1.117,0,0,0,.623.206,1.129,1.129,0,0,0,1.15-1.108C27.939,13.944,27.937,13.654,27.926,13.369ZM24.905,20.8a1.12,1.12,0,0,0-1.576.226c-0.143.192-.293,0.381-0.447,0.564a1.14,1.14,0,0,0,.127,1.6c0.027,0.023.054,0.044,0.082,0.064a1.12,1.12,0,0,0,1.5-.192c0.184-.218.363-0.444,0.534-0.673A1.14,1.14,0,0,0,24.905,20.8Zm1.654-4.1a1.124,1.124,0,0,0-1.411.743c-0.071.228-.15,0.457-0.235,0.682a1.139,1.139,0,0,0,.4,1.33,1.122,1.122,0,0,0,1.7-.523c0.1-.267.195-0.54,0.28-0.811A1.136,1.136,0,0,0,26.56,16.7ZM11.854,25.563a11.564,11.564,0,0,1-2.887-.924c-0.011-.006-0.02-0.012-0.032-0.018-0.216-.1-0.431-0.212-0.64-0.326l0,0A11.861,11.861,0,0,1,4.335,7.1,11.733,11.733,0,0,1,7.222,4.208l0.04-.028a11.7,11.7,0,0,1,13.186-.107l-0.88,1.28c-0.244.356-.094,0.616,0.334,0.577l3.82-.344a0.633,0.633,0,0,0,.57-0.829L23.267,1.034c-0.115-.418-0.409-0.467-0.654-0.111L21.732,2.206A13.819,13.819,0,0,0,11.546.024c-0.36.063-.716,0.14-1.066,0.229H10.473l-0.04.012a13.874,13.874,0,0,0-7.7,5.2C2.72,5.481,2.7,5.5,2.688,5.521,2.624,5.608,2.561,5.7,2.5,5.785c-0.1.145-.2,0.294-0.3,0.443C2.189,6.246,2.18,6.264,2.17,6.282A14.056,14.056,0,0,0-.048,14.527c0,0.01,0,.019,0,0.029,0.013,0.284.035,0.573,0.066,0.856,0,0.019.006,0.036,0.009,0.054,0.031,0.286.071,0.572,0.12,0.858a14.027,14.027,0,0,0,3.917,7.588l0.014,0.015,0.005,0a14.194,14.194,0,0,0,1.793,1.509,13.822,13.822,0,0,0,5.581,2.353A1.134,1.134,0,0,0,11.854,25.563ZM13.246,4.755a0.914,0.914,0,0,0-.911.917v9.139l8.3,4.321a0.9,0.9,0,0,0,.417.1,0.91,0.91,0,0,0,.81-0.5,0.92,0.92,0,0,0-.391-1.236l-7.313-3.809V5.672A0.914,0.914,0,0,0,13.246,4.755Z"/>
</svg>
