<svg xmlns="http://www.w3.org/2000/svg" width="38" height="42" viewBox="0 0 38 42">
  <defs>
    <style>
      .cls-1 {
        fill: #c3c3c3;
        fill-rule: evenodd;
      }
    </style>
  </defs>
  <path id="Forma_1" data-name="Forma 1" class="cls-1" d="M37.906,2.683A2.674,2.674,0,0,0,35.247,0H6.036a2.684,2.684,0,0,0-.687,5.273V26.029L0.3,30.98l-0.026.026A1.311,1.311,0,0,0,.3,32.849a1.283,1.283,0,0,0,1.826-.026L6.1,28.7a1.032,1.032,0,0,0,.295.043h8.578L12.336,39.9H10.982a1.051,1.051,0,0,0,0,2.1h3.7a1.051,1.051,0,0,0,0-2.1H14.476l2.632-11.155h7.065L26.805,39.9H26.6a1.051,1.051,0,0,0,0,2.1h3.7a1.051,1.051,0,0,0,0-2.1H28.946L26.314,28.744h8.578a1.046,1.046,0,0,0,1.041-1.05V5.272A2.682,2.682,0,0,0,37.906,2.683ZM14.318,20.164a1.059,1.059,0,0,0,0-1.465,1.034,1.034,0,0,0-1.472-.021L7.431,23.987V5.366h26.42V26.643H8.077Zm20.929-16.9H6.036a0.582,0.582,0,0,1,0-1.165H35.247A0.582,0.582,0,0,1,35.247,3.265ZM23.273,21.211H21.682V16A1.041,1.041,0,1,0,19.6,16v5.206H19.277a1.051,1.051,0,0,0,0,2.1H29.783a1.051,1.051,0,0,0,0-2.1H29.028V11.906a1.041,1.041,0,1,0-2.082,0v9.305h-1.59V10.5a1.041,1.041,0,1,0-2.082,0V21.211h0Z"/>
</svg>
