<svg xmlns="http://www.w3.org/2000/svg" width="29" height="44" viewBox="0 0 29 44">
  <defs>
    <style>
      .cls-1 {
        fill: #c3c3c3;
        fill-rule: evenodd;
      }
    </style>
  </defs>
  <path id="Forma_1" data-name="Forma 1" class="cls-1" d="M28.109,37.766h-2l-3.054-4.33,5.82-19.084a1,1,0,0,0,.043-0.291C28.915,6.308,22.965,0,15.652,0A12.818,12.818,0,0,0,6.71,3.677a0.983,0.983,0,0,0,.017,1.411l3.53,3.248-6.677,7a2.839,2.839,0,0,0-.09,3.782l2.164,2.507a0.857,0.857,0,0,0,.944.257l7.381-2.659a5.673,5.673,0,0,0,.486.295l-8.8,9.812a9.866,9.866,0,0,0-2.272,8.44h-2.5A0.919,0.919,0,0,0,0,38.71v4.345A0.919,0.919,0,0,0,.891,44H28.109A0.919,0.919,0,0,0,29,43.055V38.71A0.919,0.919,0,0,0,28.109,37.766ZM6.958,30.627l9.425-10.512a5.232,5.232,0,0,0,.587.036,5.744,5.744,0,0,0,5.563-5.9,6.042,6.042,0,0,0-1.629-4.17,0.855,0.855,0,0,0-1.26,0,0.985,0.985,0,0,0,0,1.336,4.106,4.106,0,0,1,1.107,2.835,3.9,3.9,0,0,1-3.781,4.009,3.762,3.762,0,0,1-3.271-2,0.863,0.863,0,0,0-1.218-.341,0.976,0.976,0,0,0-.322,1.291,5.887,5.887,0,0,0,.339.54L6.576,19.891,4.8,17.839a0.873,0.873,0,0,1,.028-1.163l7.361-7.714a0.983,0.983,0,0,0-.042-1.385L8.683,4.387a11.033,11.033,0,0,1,6.968-2.5c6.285,0,11.406,5.382,11.48,12.027l-5.918,19.4a0.991,0.991,0,0,0,.134.856l2.532,3.59H5.227A7.906,7.906,0,0,1,6.958,30.627Zm20.26,11.484H1.782V39.655H27.218v2.456Z"/>
</svg>
