<svg xmlns="http://www.w3.org/2000/svg" width="27" height="28" viewBox="0 0 27 28">
  <defs>
    <style>
      .cls-1 {
        fill: #ffa000;
        fill-rule: evenodd;
      }
    </style>
  </defs>
  <path class="cls-1" d="M21.35,17.345a2.621,2.621,0,0,0-1.929-.916,2.708,2.708,0,0,0-1.952.91l-1.8,1.861c-0.148-.083-0.3-0.16-0.439-0.236-0.206-.106-0.4-0.207-0.565-0.313a19.861,19.861,0,0,1-4.7-4.432A12.046,12.046,0,0,1,8.423,11.7c0.468-.443.9-0.9,1.324-1.347,0.16-.165.32-0.337,0.479-0.5a2.775,2.775,0,0,0,0-4.09L8.669,4.149c-0.177-.183-0.36-0.372-0.531-0.561-0.342-.367-0.7-0.745-1.073-1.1A2.659,2.659,0,0,0,5.153,1.62a2.75,2.75,0,0,0-1.94.868L3.2,2.5,1.261,4.527A4.391,4.391,0,0,0,.023,7.275,10.686,10.686,0,0,0,.753,11.66,25.646,25.646,0,0,0,5.119,19.2a27.015,27.015,0,0,0,8.943,7.251,13.582,13.582,0,0,0,5.022,1.536C19.2,27.994,19.329,28,19.444,28a4.232,4.232,0,0,0,3.293-1.466c0.006-.012.017-0.018,0.023-0.03a13.2,13.2,0,0,1,1-1.069c0.245-.242.5-0.5,0.742-0.763a3,3,0,0,0,.862-2.044,2.886,2.886,0,0,0-.879-2.027Zm2.043,6.223c-0.006,0-.006.006,0,0-0.223.248-.451,0.473-0.7,0.721a15.333,15.333,0,0,0-1.1,1.182,2.708,2.708,0,0,1-2.146.94c-0.086,0-.177,0-0.263-0.006a12.065,12.065,0,0,1-4.451-1.383A25.5,25.5,0,0,1,6.312,18.19,24.181,24.181,0,0,1,2.2,11.1a8.7,8.7,0,0,1-.639-3.7A2.755,2.755,0,0,1,2.351,5.65L4.3,3.635a1.278,1.278,0,0,1,.867-0.42A1.2,1.2,0,0,1,6,3.629L6.015,3.646C6.363,3.983,6.694,4.332,7.042,4.7c0.177,0.189.36,0.378,0.542,0.573L9.143,6.891a1.152,1.152,0,0,1,0,1.832c-0.165.171-.325,0.343-0.491,0.508-0.479.508-.936,0.981-1.432,1.442a0.135,0.135,0,0,0-.029.029,1.237,1.237,0,0,0-.3,1.342L6.911,12.1a13.042,13.042,0,0,0,1.843,3.114L8.76,15.218a21.217,21.217,0,0,0,5.068,4.775,7.629,7.629,0,0,0,.7.4c0.206,0.107.4,0.207,0.565,0.313,0.023,0.012.046,0.03,0.069,0.041a1.135,1.135,0,0,0,1.433-.26l1.952-2.021a1.276,1.276,0,0,1,.862-0.443,1.149,1.149,0,0,1,.822.431l0.011,0.012,3.145,3.256A1.194,1.194,0,0,1,23.393,23.567ZM14.593,6.66A7.157,7.157,0,0,1,18.53,8.776a7.627,7.627,0,0,1,2.043,4.077,0.774,0.774,0,0,0,.759.662,0.957,0.957,0,0,0,.131-0.012,0.8,0.8,0,0,0,.634-0.922,9.228,9.228,0,0,0-2.471-4.934,8.7,8.7,0,0,0-4.765-2.559,0.777,0.777,0,0,0-.89.65A0.787,0.787,0,0,0,14.593,6.66Zm12.4,5.691a15.182,15.182,0,0,0-4.069-8.126A14.318,14.318,0,0,0,15.072.012a0.771,0.771,0,0,0-.885.65,0.8,0.8,0,0,0,.633.922,12.822,12.822,0,0,1,7.014,3.765,13.553,13.553,0,0,1,3.635,7.263,0.774,0.774,0,0,0,.759.662,0.971,0.971,0,0,0,.131-0.012A0.78,0.78,0,0,0,26.988,12.351Z"/>
</svg>
