<svg xmlns="http://www.w3.org/2000/svg" width="53" height="54" viewBox="0 0 53 54">
  <defs>
    <style>
      .cls-1 {
        fill: #eaeaea;
        fill-rule: evenodd;
      }
    </style>
  </defs>
  <path id="Forma_1" data-name="Forma 1" class="cls-1" d="M37.122,26.57L22.509,16.575a1.124,1.124,0,0,0-1.763.93V37.494a1.121,1.121,0,0,0,1.763.93L37.122,28.43A1.124,1.124,0,0,0,37.122,26.57ZM23.006,35.363V19.636L34.482,27.5ZM26.5,1A26.5,26.5,0,1,0,53,27.5,26.529,26.529,0,0,0,26.5,1Zm0,50.739A24.239,24.239,0,1,1,50.739,27.5,24.262,24.262,0,0,1,26.5,51.739Z"/>
</svg>
