<svg xmlns="http://www.w3.org/2000/svg" width="65" height="65" viewBox="0 0 65 65">
  <defs>
    <style>
      .cls-1 {
        fill: #525558;
        fill-rule: evenodd;
      }
    </style>
  </defs>
  <path id="Forma_1" data-name="Forma 1" class="cls-1" d="M64.92,8.293a1.053,1.053,0,0,0-.973-0.65H57.138V0.834a1.053,1.053,0,0,0-1.8-.744L47.206,8.223a7.742,7.742,0,0,0-2.282,5.51v4.634l-1.716,1.716A25.787,25.787,0,1,0,44.7,21.573l1.716-1.716h4.634a7.742,7.742,0,0,0,5.509-2.282L64.692,9.44A1.053,1.053,0,0,0,64.92,8.293ZM47.03,13.733A5.648,5.648,0,0,1,48.7,9.713l6.337-6.337V8.26l-8,8V13.733ZM49.417,39.02a23.684,23.684,0,1,1-7.7-17.447L38.44,24.852a19.045,19.045,0,1,0,1.489,1.489l3.279-3.279A23.563,23.563,0,0,1,49.417,39.02Zm-20.216,0a3.443,3.443,0,1,1-1.87-3.059l-2.314,2.314a1.053,1.053,0,1,0,1.489,1.489L28.82,37.45A3.422,3.422,0,0,1,29.2,39.02Zm-0.336-4.593a5.55,5.55,0,1,0,1.489,1.489L33.66,32.61a10.195,10.195,0,1,1-1.489-1.489Zm4.8-4.8a12.3,12.3,0,1,0,1.489,1.489l3.283-3.283a16.94,16.94,0,1,1-1.489-1.489Zm21.4-13.54a5.648,5.648,0,0,1-4.02,1.665H48.519l8-8h4.884Z"/>
</svg>
