<svg xmlns="http://www.w3.org/2000/svg" width="51" height="65" viewBox="0 0 51 65">
  <defs>
    <style>
      .cls-1 {
        fill: #525558;
        fill-rule: evenodd;
      }
    </style>
  </defs>
  <path id="Forma_1" data-name="Forma 1" class="cls-1" d="M48.846,10.108h-6.74V6.425A3.3,3.3,0,0,0,41.064,0H9.936A3.3,3.3,0,0,0,8.894,6.425v3.683H2.154A2.167,2.167,0,0,0,0,12.284v4.492A12.236,12.236,0,0,0,12.159,29.06l0.041,0a16.623,16.623,0,0,0,9.826,6.37,4.444,4.444,0,0,0,.907,6.266,3.3,3.3,0,0,0-.7,2.037v8.985a3.426,3.426,0,0,1-3.4,3.439H14.383a2.168,2.168,0,0,0-2.154,2.176v4.492A2.167,2.167,0,0,0,14.383,65H36.617a2.167,2.167,0,0,0,2.154-2.176V58.332a2.167,2.167,0,0,0-2.154-2.176H32.17a3.426,3.426,0,0,1-3.4-3.439V43.731a3.305,3.305,0,0,0-.7-2.037,4.443,4.443,0,0,0,.907-6.266,16.623,16.623,0,0,0,9.826-6.37l0.041,0A12.236,12.236,0,0,0,51,16.776V12.284A2.167,2.167,0,0,0,48.846,10.108Zm-38.91-8H41.064a1.193,1.193,0,0,1,0,2.387H9.936A1.193,1.193,0,0,1,9.936,2.105ZM2.084,16.776V12.284a0.07,0.07,0,0,1,.07-0.071h6.74v6.809a16.808,16.808,0,0,0,1.929,7.84A10.157,10.157,0,0,1,2.084,16.776ZM36.617,58.261a0.07,0.07,0,0,1,.069.071v4.492a0.07,0.07,0,0,1-.069.07H14.383a0.07,0.07,0,0,1-.069-0.07V58.332a0.07,0.07,0,0,1,.069-0.071H36.617Zm-9.936-14.53v8.985a5.551,5.551,0,0,0,1.188,3.439H23.131a5.551,5.551,0,0,0,1.188-3.439V43.731A1.181,1.181,0,1,1,26.681,43.731Zm1.112-5.616A2.293,2.293,0,1,1,25.5,35.8,2.307,2.307,0,0,1,27.793,38.115ZM25.5,33.693A14.613,14.613,0,0,1,10.978,19.022V6.6H40.022V19.022A14.613,14.613,0,0,1,25.5,33.693ZM48.916,16.776a10.157,10.157,0,0,1-8.738,10.086,16.808,16.808,0,0,0,1.928-7.84V12.214h6.74a0.07,0.07,0,0,1,.069.071v4.492Z"/>
</svg>
