<svg xmlns="http://www.w3.org/2000/svg" width="59" height="65" viewBox="0 0 59 65">
  <defs>
    <style>
      .cls-1 {
        fill: #525558;
        fill-rule: evenodd;
      }
    </style>
  </defs>
  <path id="Forma_1" data-name="Forma 1" class="cls-1" d="M58.746,43.366a4.428,4.428,0,0,0-2.678-2.682,4.358,4.358,0,0,0-3.727.377l-10.91,6.585-1.5.647H32.058a0.2,0.2,0,0,1-.178-0.1,0.2,0.2,0,0,1-.01-0.205,0.209,0.209,0,0,1,.118-0.106l5.974-2.147a4.525,4.525,0,0,0,3.017-5.421,4.39,4.39,0,0,0-5.63-3.025l-6.164,2.066L13,40.442a4.381,4.381,0,0,0-2.816,1.285l-8.8,8.856a4.559,4.559,0,0,0-.356,6.135c0.394,0.46,2.09,2.1,4.633,4.538,1.482,1.423,2.882,2.767,3.546,3.436a1.043,1.043,0,0,0,1.411.064L15.447,60.7a5.642,5.642,0,0,1,3.619-1.318H35.622a4.359,4.359,0,0,0,1.733-.358l7.814-3.369,0.064-.03,0.4-.2q0.032-.016.062-0.035l11.066-6.678A4.5,4.5,0,0,0,58.746,43.366ZM55.681,46.9l-11.035,6.66-0.334.172-7.781,3.354a2.276,2.276,0,0,1-.909.188H19.065a7.734,7.734,0,0,0-4.959,1.806L10,62.528c-0.751-.733-1.8-1.743-2.9-2.8-1.843-1.769-4.136-3.971-4.492-4.388a2.469,2.469,0,0,1,.25-3.273l8.8-8.856a2.294,2.294,0,0,1,1.474-.673l16.32-1.095a1.025,1.025,0,0,0,.261-0.051l6.293-2.109a2.3,2.3,0,0,1,2.949,1.587,2.45,2.45,0,0,1-1.672,2.867l-0.021.008L31.283,45.9a2.319,2.319,0,0,0,.775,4.5h8.087a1.04,1.04,0,0,0,.412-0.085l1.763-.76a1.064,1.064,0,0,0,.126-0.064l10.972-6.622a2.281,2.281,0,0,1,1.952-.2,2.305,2.305,0,0,1,1.408,1.418A2.419,2.419,0,0,1,55.681,46.9ZM36.808,31.19v2.433a1.047,1.047,0,1,0,2.094,0V30.374h0V25.455A22.221,22.221,0,0,0,57.879,5.525a1.057,1.057,0,0,0-.3-0.844,1.042,1.042,0,0,0-.839-0.3A22.155,22.155,0,0,0,38.9,16.883V4.422a2.312,2.312,0,0,1,2.3-2.317A1.053,1.053,0,0,0,41.2,0a4.414,4.414,0,0,0-4.4,4.422V8.383a13.44,13.44,0,0,0-10.02-6.132,1.043,1.043,0,0,0-.839.3,1.057,1.057,0,0,0-.3.844A13.506,13.506,0,0,0,36.808,15.45v7.168A22.155,22.155,0,0,0,18.972,10.113a1.042,1.042,0,0,0-.839.3,1.058,1.058,0,0,0-.3.844A22.22,22.22,0,0,0,36.808,31.19ZM27.943,4.56a11.4,11.4,0,0,1,8.659,8.71A11.4,11.4,0,0,1,27.943,4.56ZM55.626,6.643A20.135,20.135,0,0,1,41.11,22.853l8.651-8.7a1.057,1.057,0,0,0,0-1.489,1.043,1.043,0,0,0-1.48,0L39.424,21.57A20.106,20.106,0,0,1,55.626,6.643ZM36.285,27.305L27.429,18.4a1.042,1.042,0,0,0-1.48,0,1.057,1.057,0,0,0,0,1.489l8.651,8.7a20.135,20.135,0,0,1-14.517-16.21A20.107,20.107,0,0,1,36.285,27.305Z"/>
</svg>
