<svg xmlns="http://www.w3.org/2000/svg" width="49" height="42" viewBox="0 0 49 42">
  <defs>
    <style>
      .cls-1 {
        fill: #b9b9b9;
        fill-rule: evenodd;
      }
    </style>
  </defs>
  <path id="Forma_1" data-name="Forma 1" class="cls-1" d="M49,17.269A12.612,12.612,0,0,0,36.479,4.6a12.466,12.466,0,0,0-10.2,5.333,15.8,15.8,0,0,0-3.157-.354A11.725,11.725,0,0,0,11.669,0,11.832,11.832,0,0,0,7.207,22.722a16.424,16.424,0,0,0-.288,3.064,16,16,0,0,0,31.546,3.995A12.647,12.647,0,0,0,49,17.269ZM22.938,40.189a14.4,14.4,0,1,1,14.23-14.4A14.333,14.333,0,0,1,22.938,40.189ZM10.989,1.834A9.911,9.911,0,0,1,21.314,9.655a15.787,15.787,0,0,0-7.005,2.476h0a0.259,0.259,0,0,0-.257-0.26h-0.98l1.951-3.961a1.086,1.086,0,0,0-.961-1.572h0a1.073,1.073,0,0,0-.961.6L11.668,9.849,10.236,6.94a1.073,1.073,0,0,0-.961-0.6h0a1.086,1.086,0,0,0-.961,1.572l1.951,3.961H9.59a0.565,0.565,0,0,0-.562.569v0.021a0.565,0.565,0,0,0,.562.569h3.471q-0.331.263-.647,0.543H9.59a0.565,0.565,0,0,0-.562.568h0a0.565,0.565,0,0,0,.562.568h1.661q-0.246.267-.481,0.544l-0.175.209A16.267,16.267,0,0,0,7.65,20.94,10.022,10.022,0,0,1,10.989,1.834ZM38.826,23.7c0.107,0.01.213,0.015,0.319,0.015a3.925,3.925,0,0,0,1.221-.2l0.081-.027a0.929,0.929,0,0,0,.537-1.26l-0.122-.273a0.935,0.935,0,0,0-1.142-.512l-0.007,0a1.631,1.631,0,0,1-1.136,0c-0.073-.024-0.149-0.053-0.226-0.083a16.219,16.219,0,0,0-1.457-3.527h0.967a0.652,0.652,0,0,0,.648-0.656h0a0.652,0.652,0,0,0-.648-0.656H36.078a16.332,16.332,0,0,0-1.506-1.871l0-.007a2.047,2.047,0,0,1,3.977-.8,1.058,1.058,0,0,0,1,.7h0a1.081,1.081,0,0,0,1.017-1.436,4.178,4.178,0,0,0-7.843-.148,15.946,15.946,0,0,0-4.588-2.509,10.66,10.66,0,0,1,8.9-4.028,10.879,10.879,0,0,1,1.79,21.445A16.539,16.539,0,0,0,38.826,23.7ZM20.518,29.128a1.089,1.089,0,1,0-2.178,0,4.651,4.651,0,0,0,3.509,4.521v0.593a1.089,1.089,0,1,0,2.178,0V33.649a4.667,4.667,0,0,0,0-9.042V19.839a2.453,2.453,0,0,1,1.331,2.184,1.089,1.089,0,1,0,2.178,0A4.651,4.651,0,0,0,24.028,17.5V16.91a1.089,1.089,0,1,0-2.178,0V17.5a4.667,4.667,0,0,0,0,9.043v4.767A2.453,2.453,0,0,1,20.518,29.128Zm4.84,0a2.453,2.453,0,0,1-1.331,2.185V26.943A2.454,2.454,0,0,1,25.359,29.128Zm-4.84-7.1a2.453,2.453,0,0,1,1.331-2.184v4.369A2.453,2.453,0,0,1,20.518,22.024Z"/>
</svg>
