<svg xmlns="http://www.w3.org/2000/svg" width="28" height="42" viewBox="0 0 28 42">
  <defs>
    <style>
      .cls-1 {
        fill: #ffa000;
        fill-rule: evenodd;
      }
    </style>
  </defs>
  <path id="Forma_1" data-name="Forma 1" class="cls-1" d="M27.15,15.19H24.244a0.9,0.9,0,0,0,0,1.8h0.628v4.739l-1.9,1.073a2.484,2.484,0,0,0-2-1.061H16.324V19.327h2.85a2.762,2.762,0,0,0,2.068-.937,3.115,3.115,0,0,0,.791-2.233L21.482,2.9A2.938,2.938,0,0,0,18.622,0H9.679a2.938,2.938,0,0,0-2.86,2.9L6.267,16.157a3.115,3.115,0,0,0,.791,2.233,2.762,2.762,0,0,0,2.068.937h2.851v2.419H7.043a2.475,2.475,0,0,0-2.037,1.1L4.8,22.729l-1.669-.943V17.047H3.756a0.9,0.9,0,0,0,0-1.8H0.851a0.9,0.9,0,0,0,0,1.8H1.427v5.281a0.912,0.912,0,0,0,.451.8l2.576,1.455-0.119.681a2.78,2.78,0,0,0,.54,2.194,2.456,2.456,0,0,0,1.936.963h4.7v1.754a0.878,0.878,0,0,0,.851.9h0.952a0.966,0.966,0,0,0-.014.159v2.229a40.443,40.443,0,0,0-9.755,1.4,0.9,0.9,0,0,0-.639.875v1.946a2.259,2.259,0,0,0-1.269,2.058,2.189,2.189,0,0,0,2.12,2.248,2.189,2.189,0,0,0,2.12-2.248,2.259,2.259,0,0,0-1.269-2.058V36.444A38.831,38.831,0,0,1,13.3,35.266V37.7a2.26,2.26,0,0,0-1.261,2.054,2.124,2.124,0,1,0,4.24,0A2.258,2.258,0,0,0,15,37.69V35.266a38.833,38.833,0,0,1,8.693,1.178v1.241a2.26,2.26,0,0,0-1.269,2.058,2.124,2.124,0,1,0,4.24,0,2.259,2.259,0,0,0-1.269-2.058V35.761a0.9,0.9,0,0,0-.639-0.9A40.444,40.444,0,0,0,15,33.461V31.232a0.96,0.96,0,0,0-.014-0.159h0.952a0.877,0.877,0,0,0,.85-0.9V28.417h4.451a2.454,2.454,0,0,0,1.959-.993,2.781,2.781,0,0,0,.5-2.241l-0.136-.666,2.558-1.445a0.911,0.911,0,0,0,.451-0.8v-5.28h0.577A0.9,0.9,0,0,0,27.15,15.19ZM3.338,39.743a0.419,0.419,0,1,1,.419.444A0.433,0.433,0,0,1,3.338,39.743Zm20.788,0a0.419,0.419,0,1,1,.419.444A0.433,0.433,0,0,1,24.126,39.743Zm-9.967.453a0.445,0.445,0,1,1,.419-0.444A0.432,0.432,0,0,1,14.158,40.2Zm0.93-10.926H13.213V28.417h1.875V29.27ZM6.811,26.613A0.792,0.792,0,0,1,6.183,26.3a0.89,0.89,0,0,1-.175-0.711l0.233-1.331a0.831,0.831,0,0,1,.8-0.708H20.968a0.834,0.834,0,0,1,.8.683l0.271,1.331a0.9,0.9,0,0,1-.163.727,0.8,0.8,0,0,1-.636.323H6.811Zm1.476-9.471a1.265,1.265,0,0,1-.321-0.906L8.519,2.981A1.192,1.192,0,0,1,9.679,1.8h8.943a1.192,1.192,0,0,1,1.16,1.178l0.553,13.255a1.262,1.262,0,0,1-.321.906,1.121,1.121,0,0,1-.839.381H9.126A1.121,1.121,0,0,1,8.287,17.142Zm6.336,2.184v2.419H13.678V19.327h0.945Z"/>
</svg>
