<svg xmlns="http://www.w3.org/2000/svg" width="47" height="42" viewBox="0 0 47 42">
  <defs>
    <style>
      .cls-1 {
        fill: #c3c3c3;
        fill-rule: evenodd;
      }
    </style>
  </defs>
  <path id="Forma_1" data-name="Forma 1" class="cls-1" d="M46.417,10.827L36.646,0.968a3.254,3.254,0,0,0-4.632,0l-2.3,2.317a3.284,3.284,0,0,0-.763,1.222L18.211,2.566h0A8.968,8.968,0,0,0,7.687,9.641l-0.5,2.48a5.024,5.024,0,1,0,9.846,2l0.3-1.516,4.818,0.425,12.582,12.7,2.28,2.3a1.2,1.2,0,0,1,0,1.69,1.179,1.179,0,0,1-1.675,0l-6.108-6.163a1.082,1.082,0,0,0-1.541,0,1.106,1.106,0,0,0,0,1.554L33.8,31.273a1.2,1.2,0,0,1,0,1.69,1.179,1.179,0,0,1-1.675,0L26.022,26.8a1.083,1.083,0,0,0-1.541,0,1.106,1.106,0,0,0,0,1.554l6.108,6.163a1.2,1.2,0,0,1,0,1.69,1.177,1.177,0,0,1-1.675,0l-6.108-6.163a1.083,1.083,0,0,0-1.541,0,1.106,1.106,0,0,0,0,1.554l6.108,6.163a1.2,1.2,0,0,1,0,1.69,1.178,1.178,0,0,1-1.675,0L4.087,17.645,1.233,14.765a1.083,1.083,0,0,0-1.541,0,1.106,1.106,0,0,0,0,1.554L2.546,19.2l3.106,3.133L3.94,24.061a3.014,3.014,0,0,0,0,4.236L4.5,28.861a2.939,2.939,0,0,0,1.8.862,2.983,2.983,0,0,0,.855,1.818L7.715,32.1a2.941,2.941,0,0,0,1.8.86,2.981,2.981,0,0,0,.855,1.82l0.559,0.564a2.935,2.935,0,0,0,1.8.862,2.984,2.984,0,0,0,.855,1.819l0.559,0.563a2.953,2.953,0,0,0,4.2,0l1.712-1.727,4.1,4.14a3.341,3.341,0,0,0,4.756,0,3.381,3.381,0,0,0,.978-2.257,3.325,3.325,0,0,0,2.237-.987,3.39,3.39,0,0,0,.977-2.258,3.333,3.333,0,0,0,2.239-.986,3.39,3.39,0,0,0,.977-2.258,3.333,3.333,0,0,0,2.239-.986,3.419,3.419,0,0,0,0-4.8l-1.51-1.523,5.524-5.574L46.417,15.5A3.33,3.33,0,0,0,46.417,10.827ZM5.481,26.742a0.8,0.8,0,0,1,0-1.126L7.086,24l1.675,1.69-1.606,1.62a0.786,0.786,0,0,1-1.116,0ZM8.7,29.987a0.8,0.8,0,0,1,0-1.126L10.3,27.24l1.675,1.69-1.605,1.62a0.786,0.786,0,0,1-1.116,0Zm3.215,3.244a0.8,0.8,0,0,1,0-1.126l1.605-1.62,1.675,1.689-1.605,1.62a0.786,0.786,0,0,1-1.116,0Zm4.89,3.808a0.785,0.785,0,0,1-1.116,0l-0.559-.564a0.8,0.8,0,0,1,0-1.126l1.606-1.62,1.675,1.69ZM35.51,23.4l-12.092-12.2a1.083,1.083,0,0,0-.675-0.318l-6.183-.545c-0.032,0-.064,0-0.1,0a1.092,1.092,0,0,0-1.067.882l-0.5,2.48a2.844,2.844,0,1,1-5.574-1.134l0.5-2.48A6.784,6.784,0,0,1,17.8,4.726l0.023,0L28.415,6.642l1.3,1.315L40.264,18.6Zm9.366-9.45-3.071,3.1L31.259,6.4a1.113,1.113,0,0,1,0-1.564l2.3-2.317a1.089,1.089,0,0,1,1.55,0l9.771,9.859A1.113,1.113,0,0,1,44.876,13.945ZM42.239,12.5a1.1,1.1,0,1,1-1.09,1.1A1.094,1.094,0,0,1,42.239,12.5Z"/>
</svg>
