<svg xmlns="http://www.w3.org/2000/svg" width="28" height="35" viewBox="0 0 28 35">
  <defs>
    <style>
      .cls-1 {
        fill: #c3c3c3;
        fill-rule: evenodd;
      }
    </style>
  </defs>
  <path id="Forma_1" data-name="Forma 1" class="cls-1" d="M27.24,30.09L16.863,12.125V3.134a1.609,1.609,0,0,0,1.07-1.525A1.593,1.593,0,0,0,16.361,0H11.013a1.593,1.593,0,0,0-1.571,1.61,1.609,1.609,0,0,0,1.07,1.525v8.991L0.135,30.09A3.286,3.286,0,0,0,.11,33.358,3.128,3.128,0,0,0,2.868,35H24.507a3.128,3.128,0,0,0,2.758-1.642A3.286,3.286,0,0,0,27.24,30.09ZM11.013,1.027h5.348a0.582,0.582,0,0,1,0,1.165H11.013A0.582,0.582,0,0,1,11.013,1.027ZM26.394,32.849a2.141,2.141,0,0,1-1.887,1.123H2.868A2.141,2.141,0,0,1,.981,32.849,2.249,2.249,0,0,1,1,30.613L11.445,12.528a0.524,0.524,0,0,0,.07-0.261V3.219H15.86v9.047a0.524,0.524,0,0,0,.07.262L26.377,30.613A2.249,2.249,0,0,1,26.394,32.849ZM12.083,18.561h3.209a0.514,0.514,0,0,0,0-1.028H12.083A0.514,0.514,0,0,0,12.083,18.561Zm0,2.74h3.209a0.514,0.514,0,0,0,0-1.027H12.083A0.514,0.514,0,0,0,12.083,21.3Zm0,2.74h3.209a0.514,0.514,0,0,0,0-1.027H12.083A0.514,0.514,0,0,0,12.083,24.041Zm10.312,1.964a0.5,0.5,0,0,0-.431-0.252H5.412a0.5,0.5,0,0,0-.431.252l-3,5.2h0a1.059,1.059,0,0,0-.008,1.067,1.008,1.008,0,0,0,.9.536H24.507a1.008,1.008,0,0,0,.9-0.536,1.059,1.059,0,0,0-.009-1.067Zm-11.881.775c0,0.011,0,.023,0,0.034a0.568,0.568,0,1,1-1.136,0c0-.012,0-0.023,0-0.034h1.14Zm14.022,4.983a0.074,0.074,0,0,0-.009.016l-0.02,0H2.85a0.1,0.1,0,0,1-.011-0.017,0.091,0.091,0,0,0-.009-0.015,0.086,0.086,0,0,1,.009-0.019h0L5.7,26.781H8.375c0,0.011,0,.023,0,0.034a1.571,1.571,0,1,0,3.142,0c0-.012,0-0.023,0-0.034H21.677l2.858,4.948,0.008,0.016A0.079,0.079,0,0,1,24.536,31.763Zm-9.244-3.818a1.61,1.61,0,1,0,1.571,1.61A1.592,1.592,0,0,0,15.292,27.945Zm0,2.192a0.582,0.582,0,1,1,.568-0.582A0.576,0.576,0,0,1,15.292,30.137Zm4.28-2.192h0a0.514,0.514,0,1,0,.5.514,0.508,0.508,0,0,0-.5-0.514ZM11.55,29.589h0a0.514,0.514,0,1,0,.5.514,0.507,0.507,0,0,0-.5-0.514Zm-4.813-1.1h0a0.514,0.514,0,1,0,.5.514,0.507,0.507,0,0,0-.5-0.514Z"/>
</svg>
