<svg xmlns="http://www.w3.org/2000/svg" width="32" height="35" viewBox="0 0 32 35">
  <defs>
    <style>
      .cls-1 {
        fill: #c3c3c3;
        fill-rule: evenodd;
      }
    </style>
  </defs>
  <path id="Forma_1" data-name="Forma 1" class="cls-1" d="M22.067,4.028l0.916-1.574a0.748,0.748,0,0,1,1.039-.3,0.782,0.782,0,0,1,.292,1.062L23.4,4.791a0.742,0.742,0,0,1-.666.382,1.176,1.176,0,0,1-.373-0.087A0.772,0.772,0,0,1,22.067,4.028ZM8.6,4.8a0.742,0.742,0,0,0,.666.382A1.168,1.168,0,0,0,9.64,5.09a0.782,0.782,0,0,0,.292-1.062L9.017,2.455a0.747,0.747,0,0,0-1.039-.3,0.782,0.782,0,0,0-.293,1.062ZM16,3.351a0.751,0.751,0,0,0,.747-0.763V0.763a0.747,0.747,0,1,0-1.493,0V2.588A0.7,0.7,0,0,0,16,3.351ZM2.532,15.542H0.747a0.763,0.763,0,0,0,0,1.526H2.532A0.763,0.763,0,0,0,2.532,15.542Zm28.721,0H29.468a0.763,0.763,0,0,0,0,1.526h1.786A0.763,0.763,0,0,0,31.253,15.542ZM29.879,8.151a0.747,0.747,0,0,0-1.039-.3l-1.54.936a0.782,0.782,0,0,0-.292,1.062,0.742,0.742,0,0,0,.666.382,1.167,1.167,0,0,0,.373-0.086l1.539-.936A0.773,0.773,0,0,0,29.879,8.151Zm-4.072,8.072A10.413,10.413,0,0,1,24.519,21.2a0.747,0.747,0,0,1-.166.3l-0.085.126a9.09,9.09,0,0,1-1.081,1.444c-1.455,2.081-2.2,3.867-2.163,5.012v0.043c0,0.087.042,0.212,0.042,0.338v3.655A2.861,2.861,0,0,1,18.242,35h-4.61a2.861,2.861,0,0,1-2.825-2.887V28.076c0.042-1.105-.708-2.848-2.078-4.886a8.4,8.4,0,0,1-1.247-1.7C7.439,21.4,7.4,21.365,7.358,21.278a10.152,10.152,0,0,1-1.332-5.012,10.026,10.026,0,0,1,9.89-10.11A9.961,9.961,0,0,1,25.808,16.223Zm-6.277,12.66H12.342v1.444h7.189V28.883h0Zm0,3.316V31.9H12.342v0.3a1.313,1.313,0,0,0,1.289,1.188h4.614A1.31,1.31,0,0,0,19.531,32.2Zm4.738-15.976a8.449,8.449,0,0,0-8.355-8.54,8.449,8.449,0,0,0-8.355,8.54,8.8,8.8,0,0,0,1.162,4.335h0V20.6a10.29,10.29,0,0,0,1.124,1.53l0.085,0.086a13.049,13.049,0,0,1,2.371,5.1h7.274a13.64,13.64,0,0,1,2.451-5.224,0.161,0.161,0,0,1,.085-0.087,5.764,5.764,0,0,0,.954-1.318c0-.044.042-0.044,0.042-0.087s0.042-.043.042-0.087A8.48,8.48,0,0,0,24.268,16.223ZM4.7,8.788L3.156,7.852a0.744,0.744,0,0,0-1.039.3,0.779,0.779,0,0,0,.293,1.062l1.539,0.936a0.6,0.6,0,0,0,.373.087,0.746,0.746,0,0,0,.666-0.382A0.789,0.789,0,0,0,4.7,8.788Z"/>
</svg>
