<svg xmlns="http://www.w3.org/2000/svg" width="30" height="30" viewBox="0 0 30 30">
  <defs>
    <style>
      .cls-1 {
        fill: #ffa000;
        fill-rule: evenodd;
      }
    </style>
  </defs>
  <path id="Forma_1" data-name="Forma 1" class="cls-1" d="M29.356,0H7.17a0.656,0.656,0,0,0-.644.668V13.953H0.644A0.657,0.657,0,0,0,0,14.621V25.948A3.986,3.986,0,0,0,3.907,30H26.092A3.986,3.986,0,0,0,30,25.948V0.668A0.656,0.656,0,0,0,29.356,0ZM1.289,25.948V15.289H6.526V25.948a2.672,2.672,0,0,1-2.619,2.716A2.672,2.672,0,0,1,1.289,25.948Zm27.422,0a2.672,2.672,0,0,1-2.619,2.716H6.805a4.122,4.122,0,0,0,1.01-2.716V1.336h20.9V25.948h0ZM17.358,7.718h8.259a0.669,0.669,0,0,0,0-1.336H17.358A0.669,0.669,0,0,0,17.358,7.718Zm0,7.341h8.259a0.669,0.669,0,0,0,0-1.337H17.358A0.669,0.669,0,0,0,17.358,15.06Zm0,7.341h8.259a0.669,0.669,0,0,0,0-1.336H17.358A0.669,0.669,0,0,0,17.358,22.4ZM11.411,8.47a0.634,0.634,0,0,0,.469.21h0.005a0.635,0.635,0,0,0,.47-0.218l3.54-4.02A0.686,0.686,0,0,0,15.854,3.5a0.629,0.629,0,0,0-.91.043L11.872,7.029l-0.956-1.05A0.629,0.629,0,0,0,10,5.952a0.686,0.686,0,0,0-.026.945ZM14.944,11.2L11.872,14.69l-0.957-1.05A0.628,0.628,0,0,0,10,13.612a0.686,0.686,0,0,0-.026.945l1.433,1.573a0.634,0.634,0,0,0,.469.21h0.005a0.635,0.635,0,0,0,.47-0.218L15.9,12.1a0.686,0.686,0,0,0-.041-0.944A0.629,0.629,0,0,0,14.944,11.2Zm0,7.66-3.072,3.488L10.916,21.3A0.628,0.628,0,0,0,10,21.272a0.686,0.686,0,0,0-.026.945l1.433,1.573A0.634,0.634,0,0,0,11.88,24h0.005a0.634,0.634,0,0,0,.47-0.218l3.54-4.02a0.686,0.686,0,0,0-.041-0.944A0.628,0.628,0,0,0,14.944,18.861Z"/>
</svg>
