<svg xmlns="http://www.w3.org/2000/svg" width="48" height="42" viewBox="0 0 48 42">
  <defs>
    <style>
      .cls-1 {
        fill: #fff;
        fill-rule: evenodd;
      }
    </style>
  </defs>
  <path id="Forma_1" data-name="Forma 1" class="cls-1" d="M47.782,26.725a1.235,1.235,0,0,0-1.735-.334L32.439,35.831l-3.022-4.116a1.253,1.253,0,0,0-1.41-.45,1.29,1.29,0,0,0-.8,1.625l2.473,7.563a2.318,2.318,0,0,0,.453.794,2.2,2.2,0,0,0,3.137.177l0.162-.147,14.151-12.89A1.287,1.287,0,0,0,47.782,26.725ZM24.969,36.88H2.492V2.536H35.4V28.919a1.246,1.246,0,1,0,2.493,0V1.268A1.258,1.258,0,0,0,36.647,0H1.246A1.258,1.258,0,0,0,0,1.268v36.88a1.258,1.258,0,0,0,1.246,1.268H24.969A1.268,1.268,0,0,0,24.969,36.88ZM29.016,7.962H8.877a1.268,1.268,0,0,0,0,2.536H29.016A1.268,1.268,0,0,0,29.016,7.962Zm0,5.481H8.877a1.268,1.268,0,0,0,0,2.537H29.016A1.268,1.268,0,0,0,29.016,13.443Zm0,5.482H8.877a1.268,1.268,0,0,0,0,2.536H29.016A1.268,1.268,0,0,0,29.016,18.925Zm1.246,6.75a1.257,1.257,0,0,0-1.246-1.268H8.877a1.268,1.268,0,0,0,0,2.536H29.016A1.257,1.257,0,0,0,30.262,25.674ZM8.877,29.621a1.268,1.268,0,0,0,0,2.536h10.07a1.268,1.268,0,0,0,0-2.536H8.877Z"/>
</svg>
