<svg xmlns="http://www.w3.org/2000/svg" width="35" height="42" viewBox="0 0 35 42">
  <defs>
    <style>
      .cls-1 {
        fill: #fff;
        fill-rule: evenodd;
      }
    </style>
  </defs>
  <path id="Forma_1" data-name="Forma 1" class="cls-1" d="M5.216,23.942H2.274A2.3,2.3,0,0,0,0,26.27v13.4A2.3,2.3,0,0,0,2.274,42H5.216A2.3,2.3,0,0,0,7.49,39.672V26.27A2.3,2.3,0,0,0,5.216,23.942ZM5.4,39.672a0.183,0.183,0,0,1-.181.185H2.274a0.183,0.183,0,0,1-.181-0.185V26.27a0.183,0.183,0,0,1,.181-0.185H5.216a0.183,0.183,0,0,1,.181.185v13.4Zm8.9-10.966H11.356a2.3,2.3,0,0,0-2.274,2.328v8.638A2.3,2.3,0,0,0,11.356,42H14.3a2.3,2.3,0,0,0,2.274-2.328V31.034A2.3,2.3,0,0,0,14.3,28.706Zm0.181,10.966a0.183,0.183,0,0,1-.181.185H11.356a0.183,0.183,0,0,1-.181-0.185V31.034a0.183,0.183,0,0,1,.181-0.185H14.3a0.183,0.183,0,0,1,.181.185v8.638h0Zm8.9-11.569H20.439a2.3,2.3,0,0,0-2.274,2.328v9.242A2.3,2.3,0,0,0,20.439,42h2.942a2.3,2.3,0,0,0,2.274-2.328V30.43A2.3,2.3,0,0,0,23.381,28.1Zm0.181,11.569a0.183,0.183,0,0,1-.181.185H20.439a0.183,0.183,0,0,1-.181-0.185V30.43a0.183,0.183,0,0,1,.181-0.185h2.942a0.183,0.183,0,0,1,.181.185v9.242Zm9.165-15.127H29.784a2.3,2.3,0,0,0-2.274,2.328v12.8A2.3,2.3,0,0,0,29.784,42h2.942A2.3,2.3,0,0,0,35,39.672v-12.8A2.3,2.3,0,0,0,32.726,24.545Zm0.181,15.127a0.183,0.183,0,0,1-.181.185H29.784a0.183,0.183,0,0,1-.181-0.185v-12.8a0.183,0.183,0,0,1,.181-0.185h2.942a0.183,0.183,0,0,1,.181.185v12.8ZM17.108,0A13.355,13.355,0,0,0,3.926,13.493,13.355,13.355,0,0,0,17.108,26.986,13.355,13.355,0,0,0,30.289,13.493,13.355,13.355,0,0,0,17.108,0Zm0,24.844A11.235,11.235,0,0,1,6.02,13.493,11.235,11.235,0,0,1,17.108,2.142,11.235,11.235,0,0,1,28.2,13.493,11.235,11.235,0,0,1,17.108,24.844Zm2.325-14.8a1.047,1.047,0,1,0,2.093,0,4.511,4.511,0,0,0-3.372-4.394V4.495a1.047,1.047,0,1,0-2.093,0V5.647a4.548,4.548,0,0,0,0,8.788v4.633a2.388,2.388,0,0,1-1.279-2.123,1.047,1.047,0,1,0-2.093,0,4.511,4.511,0,0,0,3.372,4.394v1.152a1.047,1.047,0,1,0,2.093,0V21.338a4.549,4.549,0,0,0,0-8.787V7.918A2.388,2.388,0,0,1,19.434,10.041Zm-4.651,0a2.387,2.387,0,0,1,1.279-2.123v4.246A2.387,2.387,0,0,1,14.782,10.041Zm4.651,6.9a2.387,2.387,0,0,1-1.279,2.123V14.822A2.387,2.387,0,0,1,19.434,16.945Z"/>
</svg>
