<svg xmlns="http://www.w3.org/2000/svg" width="38" height="42" viewBox="0 0 38 42">
  <defs>
    <style>
      .cls-1 {
        fill: #fff;
        fill-rule: evenodd;
      }
    </style>
  </defs>
  <path id="Forma_1" data-name="Forma 1" class="cls-1" d="M24.546,30.11a1.1,1.1,0,0,0-.217-1.532L20.08,25.356V20.947a1.08,1.08,0,1,0-2.161,0v4.409l-4.249,3.222a1.1,1.1,0,0,0-.217,1.532,1.071,1.071,0,0,0,1.512.22L19,27.271l4.034,3.059A1.07,1.07,0,0,0,24.546,30.11ZM19,9.574a4.762,4.762,0,0,0,4.726-4.787,4.727,4.727,0,1,0-9.452,0A4.762,4.762,0,0,0,19,9.574Zm0-7.386a2.6,2.6,0,1,1-2.566,2.6A2.585,2.585,0,0,1,19,2.188Zm-6.076,15.7H25.076a1.088,1.088,0,0,0,1.08-1.094V14.1a3.574,3.574,0,0,0-3.547-3.592H15.39A3.574,3.574,0,0,0,11.843,14.1v2.7A1.087,1.087,0,0,0,12.923,17.892ZM24,14.1v1.6H20.08V12.695h2.53A1.4,1.4,0,0,1,24,14.1ZM14,14.1a1.4,1.4,0,0,1,1.386-1.4h2.53V15.7H14V14.1ZM7.157,33.682a4.787,4.787,0,0,0,0-9.574A4.787,4.787,0,0,0,7.157,33.682Zm0-7.385a2.6,2.6,0,1,1-2.566,2.6A2.585,2.585,0,0,1,7.157,26.3Zm3.61,8.318H3.547A3.574,3.574,0,0,0,0,38.207v2.7A1.087,1.087,0,0,0,1.08,42H13.233a1.087,1.087,0,0,0,1.08-1.094v-2.7A3.574,3.574,0,0,0,10.767,34.614ZM2.161,38.207a1.4,1.4,0,0,1,1.386-1.4h2.53v3.009H2.161V38.207Zm9.992,1.605H8.237V36.8h2.53a1.4,1.4,0,0,1,1.386,1.4v1.605h0Zm18.69-6.13a4.787,4.787,0,1,0-4.726-4.787A4.762,4.762,0,0,0,30.843,33.682Zm0-7.385a2.6,2.6,0,1,1-2.565,2.6A2.585,2.585,0,0,1,30.843,26.3Zm3.61,8.318h-7.22a3.574,3.574,0,0,0-3.547,3.592v2.7A1.087,1.087,0,0,0,24.767,42H36.92A1.087,1.087,0,0,0,38,40.906v-2.7A3.574,3.574,0,0,0,34.453,34.614Zm-8.606,3.592a1.4,1.4,0,0,1,1.386-1.4h2.53v3.009H25.847V38.207Zm9.992,1.605H31.923V36.8h2.53a1.4,1.4,0,0,1,1.386,1.4v1.605Z"/>
</svg>
