<svg xmlns="http://www.w3.org/2000/svg" width="34" height="35" viewBox="0 0 34 35">
  <defs>
    <style>
      .cls-1 {
        fill: #c3c3c3;
        fill-rule: evenodd;
      }
    </style>
  </defs>
  <path class="cls-1" d="M33.619,0.99A0.653,0.653,0,0,0,33.059.415a17.3,17.3,0,0,0-7.891.845,17.655,17.655,0,0,0-6.73,4.311l-4.3,4.409-6.2.821a0.639,0.639,0,0,0-.374.188L1.579,17.125a0.674,0.674,0,0,0-.16.664,0.65,0.65,0,0,0,.5.454L6.441,19.1l0.889,0.911L5.437,21.065a0.662,0.662,0,0,0-.331.487,0.672,0.672,0,0,0,.182.563l7.175,7.359a0.637,0.637,0,0,0,.456.194,0.66,0.66,0,0,0,.093-0.007,0.646,0.646,0,0,0,.474-0.34l1.025-1.941L15.4,28.292l0.838,4.639a0.657,0.657,0,0,0,.443.511,0.624,0.624,0,0,0,.191.03,0.637,0.637,0,0,0,.456-0.194l5.982-6.136a0.668,0.668,0,0,0,.184-0.383l0.8-6.364,4.3-4.409a18.245,18.245,0,0,0,4.2-6.9A18.614,18.614,0,0,0,33.619.99ZM6.539,17.776l-3.181-.6,4.96-5.087,4.328-.572Zm6.225,10.136L6.812,21.806l1.469-.816L13.56,26.4Zm9.478-1.545-4.96,5.087-0.589-3.262L22.8,21.928ZM27.68,15.052L16,27.034,7.667,18.489,19.35,6.507a16.372,16.372,0,0,1,6.044-3.924,8,8,0,0,0,2.12,4.095,7.677,7.677,0,0,0,3.992,2.175A16.909,16.909,0,0,1,27.68,15.052Zm4.214-7.471a6.388,6.388,0,0,1-3.468-1.839,6.666,6.666,0,0,1-1.793-3.557,16.06,16.06,0,0,1,5.761-.512A17.294,17.294,0,0,1,31.894,7.581ZM18.72,10.022a4.092,4.092,0,0,0,0,5.676,3.849,3.849,0,0,0,5.534,0h0a4.091,4.091,0,0,0,0-5.676A3.849,3.849,0,0,0,18.72,10.022Zm4.621,4.74a2.579,2.579,0,0,1-3.709,0,2.742,2.742,0,0,1,0-3.8,2.58,2.58,0,0,1,3.709,0A2.742,2.742,0,0,1,23.342,14.762ZM8.146,26.667a0.634,0.634,0,0,0-.912,0L1.7,32.343a0.674,0.674,0,0,0,0,.936,0.634,0.634,0,0,0,.912,0L8.146,27.6A0.674,0.674,0,0,0,8.146,26.667ZM9,28.476L6.5,31.033a0.674,0.674,0,0,0,0,.936,0.633,0.633,0,0,0,.912,0L9.91,29.412a0.674,0.674,0,0,0,0-.936A0.633,0.633,0,0,0,9,28.476ZM5.632,32.2a0.652,0.652,0,0,0-.607.438,0.679,0.679,0,0,0,.208.742A0.637,0.637,0,0,0,6,33.407a0.677,0.677,0,0,0,.227-0.8A0.648,0.648,0,0,0,5.632,32.2Zm0.6,0.408c0.016,0.04-.016-0.04,0,0h0ZM3.807,33.8l-0.343.352a0.674,0.674,0,0,0,0,.936,0.634,0.634,0,0,0,.912,0l0.343-.352a0.673,0.673,0,0,0,0-.935A0.634,0.634,0,0,0,3.807,33.8ZM3.342,27.977a0.634,0.634,0,0,0-.912,0l-2.493,2.557a0.674,0.674,0,0,0,0,.936,0.634,0.634,0,0,0,.912,0l2.493-2.557A0.674,0.674,0,0,0,3.342,27.977Zm1.029-.254A0.666,0.666,0,0,0,4.5,26.492a0.637,0.637,0,0,0-.754.132,0.682,0.682,0,0,0-.073.823c-0.005-.008-0.009-0.014,0,0s0.007,0.01,0,0A0.645,0.645,0,0,0,4.372,27.723ZM6.04,26.146l0.343-.352a0.673,0.673,0,0,0,0-.935,0.633,0.633,0,0,0-.912,0l-0.343.352a0.673,0.673,0,0,0,0,.935A0.634,0.634,0,0,0,6.04,26.146Z"/>
</svg>
